<svg xmlns="http://www.w3.org/2000/svg" width="37" height="29" viewBox="0 0 256 200.65"><path d="M245.333 179.893H10.667C4.779 179.893 0 184.543 0 190.27c0 5.729 4.779 10.378 10.667 10.378h234.666c5.888 0 10.667-4.65 10.667-10.378 0-5.729-4.779-10.378-10.667-10.378zM245.622 0H100.324c-5.729 0-10.378 4.65-10.378 10.38 0 5.729 4.65 10.378 10.378 10.378h145.298c5.729 0 10.378-4.65 10.378-10.378C256 4.65 251.35.001 245.622.001zm-.289 62.27H10.667C4.779 62.27 0 66.921 0 72.65c0 5.728 4.779 10.378 10.667 10.378h234.666c5.888 0 10.667-4.65 10.667-10.379 0-5.729-4.779-10.378-10.667-10.378zm.289 62.271H100.324c-5.729 0-10.378 4.65-10.378 10.379 0 5.728 4.65 10.378 10.378 10.378h145.298c5.729 0 10.378-4.65 10.378-10.378 0-5.73-4.65-10.379-10.378-10.379z" fill="#dfdfdf" font-family="none" font-weight="none" font-size="none" text-anchor="none"/></svg>