<svg version="1.1" xmlns="http://www.w3.org/2000/svg" xmlns:xlink="http://www.w3.org/1999/xlink" width="37" height="29" viewBox="0,0,256,200.64999"><g fill="#dfdfdf" fill-rule="nonzero" stroke="none" stroke-width="1" stroke-linecap="butt" stroke-linejoin="miter" stroke-miterlimit="10" stroke-dasharray="" stroke-dashoffset="0" font-family="none" font-weight="none" font-size="none" text-anchor="none" style="mix-blend-mode: normal"><g transform="translate(0,0.00067) scale(6.91892,6.91892)"><g id="icon_menu"><path d="M35.4583,26h-33.91663c-0.851,0 -1.54167,0.672 -1.54167,1.5c0,0.828 0.69067,1.5 1.54167,1.5h33.91663c0.851,0 1.5417,-0.672 1.5417,-1.5c0,-0.828 -0.6907,-1.5 -1.5417,-1.5z" id="Path"></path><path d="M35.5,0h-21c-0.828,0 -1.5,0.672 -1.5,1.5c0,0.828 0.672,1.5 1.5,1.5h21c0.828,0 1.5,-0.672 1.5,-1.5c0,-0.828 -0.672,-1.5 -1.5,-1.5z" id="Path_2"></path><path d="M35.4583,9h-33.91663c-0.851,0 -1.54167,0.672 -1.54167,1.5c0,0.828 0.69067,1.5 1.54167,1.5h33.91663c0.851,0 1.5417,-0.672 1.5417,-1.5c0,-0.828 -0.6907,-1.5 -1.5417,-1.5z" id="Path_3"></path><path d="M35.5,18h-21c-0.828,0 -1.5,0.672 -1.5,1.5c0,0.828 0.672,1.5 1.5,1.5h21c0.828,0 1.5,-0.672 1.5,-1.5c0,-0.828 -0.672,-1.5 -1.5,-1.5z" id="Path_4"></path></g></g></g></svg>