<svg version="1.1" xmlns="http://www.w3.org/2000/svg" xmlns:xlink="http://www.w3.org/1999/xlink" width="80.000000pt" height="80.000000pt" viewBox="0,0,256,256"><g fill="#dfdfdf" fill-rule="nonzero" stroke="none" stroke-width="1" stroke-linecap="butt" stroke-linejoin="miter" stroke-miterlimit="10" stroke-dasharray="" stroke-dashoffset="0" font-family="none" font-weight="none" font-size="none" text-anchor="none" style="mix-blend-mode: normal"><g transform="translate(0.469,0.47746) scale(0.94465,0.94465)"><g transform="translate(0,271) scale(0.1,-0.1)"><path d="M1390,2649c-13,-6 -33,-17 -42,-26c-10,-9 -18,-12 -18,-6c0,14 -46,33 -81,33c-48,0 -95,-27 -150,-88c-34,-38 -47,-58 -40,-65c7,-7 30,8 74,51c35,33 77,64 92,68c33,8 77,-5 83,-26c4,-12 1,-11 -15,3c-20,18 -58,23 -67,9c-3,-5 4,-15 16,-23c11,-8 29,-23 39,-33c19,-20 20,-20 48,14c26,32 28,32 26,10c-1,-13 -10,-26 -20,-30c-27,-9 0,-24 30,-16c13,3 27,1 31,-6c4,-6 3,-8 -3,-5c-11,7 -89,-55 -128,-101c-39,-46 -11,-50 38,-5c105,94 107,95 113,76c3,-10 9,-27 14,-38l9,-20v20c1,17 4,16 25,-10c20,-24 27,-27 37,-18c10,10 4,22 -28,61c-30,36 -37,48 -24,49c9,1 54,15 101,32c47,17 101,31 120,31c34,0 34,0 12,-16c-12,-8 -22,-26 -22,-40c0,-28 18,-32 27,-6c4,9 11,20 17,24c28,19 166,0 225,-32l23,-12l-22,-11c-13,-7 -27,-22 -31,-35c-8,-22 -7,-23 29,-16c20,3 42,13 48,20c10,12 13,12 24,-1c13,-16 40,-21 40,-7c0,4 -17,24 -37,44c-55,53 -123,81 -215,86c-43,2 -75,8 -72,13c9,15 -48,22 -104,12c-49,-9 -57,-8 -74,9c-36,36 -96,47 -148,27z"></path><path d="M992,2619c-18,-6 -35,-15 -38,-22c-3,-8 -19,-11 -43,-9c-55,5 -139,-14 -182,-43c-22,-14 -47,-44 -63,-76c-14,-29 -26,-47 -26,-40c0,9 -9,11 -32,6c-135,-29 -216,-148 -188,-274c15,-69 26,-91 45,-91c18,0 18,-2 0,50c-8,23 -15,44 -15,46c0,2 16,4 35,4c24,0 44,9 65,28l31,27h-65c-57,-1 -66,2 -66,17c0,15 9,18 50,18c51,0 110,-22 110,-40c0,-6 -4,-10 -8,-10c-5,0 -35,-25 -66,-55c-42,-41 -53,-57 -42,-61c22,-9 80,13 111,41c34,32 37,31 33,-7c-3,-31 -5,-33 -77,-49c-128,-29 -142,-30 -140,-11c3,34 -1,50 -21,73l-20,24l6,-35c3,-19 8,-46 10,-59c5,-23 4,-23 -50,-19c-31,3 -59,7 -62,11c-8,7 2,46 16,67c9,13 11,13 20,0c6,-8 13,-27 16,-42c4,-15 10,-25 15,-22c15,9 10,76 -7,95c-14,16 -12,20 25,50c38,30 53,59 33,59c-5,0 -27,-13 -49,-29c-47,-34 -99,-112 -108,-162c-7,-36 -6,-37 31,-49c24,-8 70,-11 131,-8c52,3 90,2 83,-2c-8,-5 -6,-11 5,-20c9,-8 13,-20 9,-32c-3,-11 2,-30 11,-45c15,-23 19,-24 27,-9c5,9 6,21 2,28c-5,8 -2,9 12,3c44,-18 62,-17 74,5c6,12 9,28 6,36c-4,9 1,14 14,14c19,0 19,-2 6,-35c-8,-19 -11,-35 -6,-35c22,0 42,15 56,41c8,17 23,29 34,29c10,0 21,8 23,18c3,9 5,0 6,-20c0,-20 3,-43 7,-51c4,-11 -11,-16 -71,-21c-42,-4 -103,-15 -136,-26c-71,-22 -270,-140 -261,-155c3,-5 -2,-4 -11,4c-22,18 -22,18 11,35c44,23 103,88 100,110c-4,27 -67,40 -128,27c-24,-5 -46,-8 -48,-6c-5,5 115,41 164,49l42,7l-5,-48c-3,-26 -10,-56 -15,-65c-5,-10 -5,-18 0,-18c31,0 89,133 69,158c-12,15 -50,11 -152,-15c-104,-26 -155,-52 -155,-79c0,-13 -5,-24 -11,-24c-6,0 -24,-10 -41,-21c-29,-21 -30,-25 -25,-78c2,-31 12,-73 21,-94c14,-32 20,-37 31,-27c11,9 12,17 5,30c-12,23 -13,33 -2,26c5,-3 32,6 61,19c28,14 49,20 46,15c-3,-6 1,-20 9,-32c25,-36 20,-83 -13,-121c-38,-43 -28,-70 13,-35c35,30 56,91 46,133c-6,28 -4,35 14,43c11,6 45,25 74,42c51,30 52,30 47,8c-2,-13 -7,-35 -9,-50c-3,-15 -7,-32 -11,-38c-9,-15 7,-12 31,5c26,18 54,74 54,109c0,21 7,27 38,35c51,15 60,14 34,-5c-14,-10 -22,-25 -22,-45c0,-43 16,-36 36,16c16,42 19,45 53,45h36l-33,-26c-42,-34 -56,-59 -43,-82c6,-10 11,-12 11,-4c0,7 15,19 34,27c25,11 36,23 41,45c7,32 22,36 75,21c24,-7 24,-7 -7,-14c-33,-7 -46,-27 -18,-27c10,0 15,-10 15,-27l1,-28l37,41l38,42l54,-21c80,-29 126,-61 157,-109c25,-37 28,-52 31,-139c5,-128 -12,-263 -36,-294c-10,-13 -31,-57 -46,-98c-28,-78 -39,-89 -166,-165c-98,-59 -86,-57 -241,-57c-167,0 -185,-7 -191,-73l-3,-36l-55,45c-62,50 -90,65 -91,46c0,-7 -4,-2 -9,10c-5,13 -17,23 -26,23c-31,0 -83,41 -108,85c-20,37 -21,43 -7,36c27,-15 43,-38 39,-57c-4,-23 21,-30 28,-7c3,10 15,42 26,70c12,31 17,60 13,70c-6,14 -14,5 -36,-42c-16,-33 -29,-54 -29,-47c0,8 -21,41 -47,74c-52,69 -59,106 -25,141l22,21l29,-34c24,-29 31,-32 36,-19c4,11 -14,46 -50,100c-51,74 -57,87 -52,122c3,21 12,46 21,56c17,19 22,51 7,51c-16,0 -50,-50 -60,-87c-12,-41 0,-80 41,-140c16,-24 23,-41 16,-38c-16,6 -29,-3 -51,-35c-25,-36 -21,-70 16,-125c27,-40 33,-57 29,-86c-3,-30 2,-43 29,-73c37,-43 88,-73 98,-58c3,6 6,-20 6,-56c0,-60 2,-67 21,-70c28,-4 59,54 41,78c-10,13 -9,13 8,0c11,-9 39,-33 63,-53c47,-41 83,-47 121,-21c18,13 22,23 18,44l-6,27l188,6c103,4 196,10 206,13c37,14 3,-18 -65,-62c-38,-24 -78,-56 -89,-70c-27,-34 -27,-64 -1,-64c11,0 20,6 20,13c0,15 45,59 77,76c26,13 41,-2 23,-24c-10,-12 -9,-16 4,-21c21,-8 44,11 48,39c2,16 25,33 87,65c46,23 85,41 87,39c2,-1 -4,-30 -12,-63l-15,-60l-152,-37c-84,-21 -176,-37 -204,-37c-41,0 -53,-4 -53,-15c0,-16 13,-19 75,-16c25,1 35,-1 28,-7c-10,-6 -5,-19 19,-53c21,-29 25,-38 11,-26c-24,21 -186,61 -220,54c-15,-3 -20,0 -16,10c3,8 -2,13 -15,13c-36,0 -82,-160 -49,-173c7,-3 7,-6 1,-6c-25,-2 -91,59 -118,109l-29,53l76,-7c52,-5 77,-4 82,4c11,18 2,21 -94,27c-90,6 -91,6 -91,-17c0,-39 38,-106 85,-148c104,-97 230,-72 250,48c8,46 11,47 94,21c33,-10 62,-17 64,-14c3,2 27,-23 56,-55c47,-55 51,-65 58,-127c10,-89 33,-101 34,-18c1,44 3,52 8,32c5,-14 24,-45 42,-70c19,-25 50,-68 69,-97c33,-49 56,-62 54,-31c-1,17 -109,171 -152,217c-18,19 -33,48 -37,71l-6,39l40,4c39,3 43,1 68,-37c49,-74 116,-155 124,-149c5,3 9,3 9,0c0,-3 -21,-17 -46,-32c-33,-19 -42,-30 -34,-38c13,-13 70,15 146,73c50,38 51,38 74,19l23,-19l-37,-38c-35,-35 -38,-51 -10,-51c7,0 35,28 64,61c36,44 48,65 40,73c-7,7 -15,5 -26,-6c-15,-14 -19,-13 -48,21c-172,197 -179,344 -19,438l44,26l42,-30c23,-17 56,-49 72,-73c26,-36 30,-50 30,-108c0,-56 -6,-79 -35,-137c-18,-38 -34,-74 -34,-80c-3,-41 74,48 145,168c27,46 42,60 77,74c23,9 46,12 50,8c4,-4 1,-10 -7,-13c-27,-9 -61,-51 -61,-75c0,-25 47,-77 71,-78c11,0 11,-2 -2,-7c-23,-10 -204,-232 -203,-248c1,-8 -21,4 -48,26c-53,42 -63,46 -72,31c-7,-10 66,-74 151,-134c41,-28 54,-33 62,-23c8,10 0,21 -35,45l-45,33l23,28c13,16 61,76 108,134c71,87 90,105 113,105c16,1 38,6 49,12c20,11 21,9 14,-22l-6,-34l25,30c13,17 25,39 25,50c1,35 39,107 60,112c28,8 26,43 -2,43c-13,0 -68,16 -123,35c-55,19 -108,35 -117,35c-30,0 -58,37 -58,75c0,19 4,35 9,35c17,0 186,-62 231,-85c86,-44 109,-99 71,-173c-15,-30 -18,-42 -9,-43c7,0 -2,-5 -19,-10c-18,-5 -33,-16 -33,-24c0,-20 -1,-20 118,12c81,22 102,31 102,45c0,10 -1,18 -2,18c-2,0 -32,-9 -68,-20c-36,-11 -68,-20 -71,-20c-4,0 4,21 17,47c28,55 30,100 7,143c-18,31 -18,31 7,52c22,18 34,20 95,15c53,-5 73,-11 85,-26c44,-58 210,-70 210,-15c0,10 -6,14 -15,10c-32,-12 -13,13 30,41c25,16 45,36 45,46c0,22 -6,21 -38,-2c-40,-28 -109,-61 -127,-61c-9,0 -24,9 -33,20c-21,25 -131,50 -225,50c-57,0 -78,5 -139,36c-130,66 -145,78 -179,152c-43,94 -81,274 -86,407l-5,111l88,69c102,81 117,90 162,98c44,9 43,-14 -3,-54c-19,-17 -35,-35 -35,-40c0,-16 39,-10 58,9c16,17 19,17 61,-10c25,-15 55,-28 68,-28c22,0 22,2 -13,48c-20,26 -47,51 -60,55c-35,12 -30,24 14,30c20,4 52,9 69,13c29,6 34,3 43,-20c7,-20 16,-26 39,-26c15,0 34,6 40,14c10,11 4,17 -31,29l-43,14l52,7c58,9 73,4 73,-24c0,-12 16,-30 39,-46c22,-14 42,-33 44,-42c3,-10 5,1 6,22c1,29 -5,47 -21,64l-23,24l55,-22c30,-12 74,-32 97,-46c39,-23 42,-26 32,-51c-15,-40 -2,-76 42,-118c34,-35 38,-43 33,-72c-8,-42 15,-80 61,-99c19,-8 39,-14 45,-14c13,0 13,41 0,75c-11,29 -30,25 -30,-6c0,-24 -13,-25 -31,-2c-8,9 -9,14 -3,10c17,-10 87,71 80,91c-3,10 6,4 20,-12c23,-26 25,-34 19,-80c-4,-28 -11,-66 -15,-85c-5,-19 -7,-38 -4,-43c7,-10 8,-10 -48,7c-42,12 -49,12 -63,-1c-19,-19 -19,-64 -1,-90c20,-26 43,-6 27,24c-25,47 -8,53 63,23c24,-11 52,-31 61,-45c16,-24 16,-28 -5,-72c-15,-30 -19,-49 -12,-56c14,-14 53,45 59,93c5,35 2,43 -30,73c-20,18 -32,37 -27,42c12,13 30,108 30,158c0,33 -7,52 -30,81c-31,39 -37,50 -20,40c6,-4 10,10 10,34c0,28 -7,48 -25,69c-26,31 -99,67 -116,57c-17,-11 -9,-23 23,-34c47,-17 88,-60 88,-93c0,-20 -4,-26 -15,-22c-17,7 -21,-21 -5,-31c6,-4 3,-17 -10,-33c-29,-39 -73,-89 -65,-74c4,7 1,21 -6,30c-11,14 -11,15 1,5c17,-16 45,3 31,21c-6,7 2,31 26,69c26,42 32,62 25,69c-8,8 -17,4 -32,-13c-11,-13 -19,-18 -18,-10c3,17 -76,75 -172,126c-36,20 -82,45 -104,57c-43,24 -160,30 -295,15l-74,-9l16,24c45,61 57,85 54,103c-3,16 2,21 25,22c24,1 30,-4 35,-28c6,-29 26,-52 56,-62c25,-9 23,37 -4,61c-15,15 -17,21 -6,25c8,3 21,-8 32,-29c20,-37 36,-41 78,-20c25,14 27,14 17,-4c-13,-24 -13,-60 0,-60c13,0 32,48 28,69c-2,8 -14,18 -28,22c-22,6 -20,7 11,8c45,1 63,-18 54,-58c-6,-30 8,-71 25,-71c14,0 13,77 -1,102c-11,20 -9,20 27,14c22,-4 66,-15 99,-24l60,-17l-75,-5c-67,-4 -75,-7 -78,-26c-4,-28 38,-77 86,-100c20,-11 37,-25 37,-33c0,-31 22,-18 59,36c30,44 36,57 25,64c-9,6 -10,9 -2,9c6,0 25,-11 42,-25c23,-20 31,-36 33,-67c4,-49 24,-61 33,-20c9,41 -17,99 -55,120c-16,9 -28,23 -25,29c11,29 -157,83 -328,104c-70,9 -91,9 -97,-1c-5,-8 -11,-2 -18,19c-14,41 -47,44 -38,4c3,-16 3,-22 0,-15c-4,8 -30,12 -72,13c-37,1 -59,3 -49,6c20,5 21,20 7,59c-10,24 -9,26 5,14c9,-8 72,-28 140,-45c69,-18 123,-34 121,-36c-3,-2 39,-5 91,-6c69,-2 101,-7 113,-18c22,-20 70,-20 70,1c0,8 -4,12 -10,9c-18,-11 -32,6 -15,19c35,26 -93,216 -166,246c-16,7 -26,17 -23,25c3,7 -11,31 -31,54c-52,57 -128,84 -220,78c-83,-5 -121,-21 -141,-58c-30,-59 -10,-129 48,-170c18,-13 41,-34 51,-46c10,-13 29,-23 42,-23c12,0 25,-7 29,-15c7,-18 3,-18 -57,0c-27,8 -52,13 -57,12c-9,-2 -59,58 -91,109c-16,26 -18,38 -10,53c15,27 14,56 -3,70c-12,10 -15,7 -21,-17c-9,-44 -33,-36 -37,14c-1,23 1,40 5,37c4,-2 21,-9 38,-13c26,-8 35,-5 55,15c29,29 31,66 6,88c-37,34 -123,11 -108,-28c6,-16 8,-17 24,-1c33,29 75,13 65,-25c-8,-29 -47,-23 -88,12c-27,24 -39,29 -47,21c-9,-9 -7,-16 6,-30c12,-14 18,-42 20,-103c5,-100 21,-159 43,-159c11,0 14,6 9,23c-3,12 -8,38 -10,57c-2,19 -1,27 1,16c3,-10 24,-48 47,-85c59,-93 58,-91 46,-91c-6,0 -16,14 -22,30c-10,31 -18,35 -102,44c-43,5 -47,4 -41,-12c5,-13 4,-14 -6,-5c-10,10 -9,16 3,30c16,18 21,40 19,77c-1,18 -4,17 -31,-9c-29,-28 -30,-28 -44,-9c-13,17 -12,20 13,26c33,9 57,33 42,42c-5,4 -31,7 -58,8c-39,2 -52,8 -74,33c-19,21 -31,27 -38,20c-8,-8 -2,-21 18,-45c56,-69 163,-255 124,-216c-5,4 -8,13 -8,19c0,7 -8,13 -17,15c-26,5 -24,-44 1,-58c20,-10 91,-14 91,-5c0,3 -7,17 -16,30c-16,25 -16,25 15,25c25,0 34,-6 42,-27c24,-63 -24,-102 -95,-78c-67,23 -107,73 -120,150c-6,34 -6,38 6,23c15,-19 43,-28 44,-13c3,25 -22,57 -48,62c-19,4 -35,18 -52,47c-13,22 -49,68 -79,101c-44,47 -58,57 -68,48c-10,-10 1,-26 51,-79c99,-106 137,-214 111,-312c-12,-41 -24,-52 -36,-32c-13,21 -23,-2 -14,-32c8,-29 5,-37 -29,-78c-21,-25 -54,-54 -74,-64l-35,-20l-37,23c-20,13 -52,47 -71,77c-40,62 -41,66 -18,57c13,-5 15,-2 10,11c-7,19 8,56 23,56c5,0 6,-24 3,-54c-5,-52 -4,-55 35,-97l40,-43l12,42c13,50 8,70 -25,106c-35,37 -31,52 6,26c35,-25 44,-22 35,14c-4,16 -21,34 -44,46c-20,11 -27,18 -15,15c23,-6 63,9 63,25c0,5 -16,10 -35,12l-35,3l17,32c10,18 32,48 50,67l32,34l55,-53c31,-29 59,-49 62,-44c11,18 -8,69 -37,100c-16,17 -27,35 -24,39c3,4 -2,13 -10,20c-11,9 -24,3 -66,-37c-57,-53 -109,-127 -109,-155c0,-10 -11,-23 -25,-30c-28,-13 -50,-66 -40,-100c6,-22 5,-22 -7,-3c-8,12 -13,51 -13,100c0,66 5,90 27,139c26,55 28,76 8,76c-10,0 -55,-93 -64,-135c-4,-16 -19,-58 -34,-92c-23,-54 -32,-64 -62,-73c-68,-19 -125,-9 -134,23c-3,12 2,50 11,84c16,60 19,63 48,63c18,1 42,11 59,27c29,24 29,26 11,39c-23,17 -40,18 -67,3c-18,-10 -20,-9 -14,6c6,16 4,16 -11,4c-21,-17 -18,-11 48,88c41,60 46,72 32,77c-10,4 -20,1 -24,-7c-5,-8 -18,-25 -29,-38l-21,-24l13,25c21,40 58,83 58,67c0,-7 11,-19 25,-25c24,-11 35,-32 16,-32c-5,0 -23,-20 -40,-45c-17,-25 -25,-45 -18,-45c24,1 97,40 103,55c4,9 12,14 20,11c7,-3 18,1 24,9c8,10 7,16 -6,23c-14,8 -13,12 10,35c17,17 26,37 26,57v31l-29,-20c-16,-12 -36,-21 -45,-21c-8,0 -19,-8 -25,-17c-14,-25 -61,-2 -61,30c0,12 -7,32 -15,44c-14,19 -13,21 16,27c17,3 42,3 55,0c14,-4 31,-1 40,7c15,12 14,14 -7,20c-34,10 -89,9 -127,-2zM969,2506c17,-11 25,22 10,42c-12,16 -12,16 5,1c16,-15 17,-21 5,-53l-13,-36l-12,29c-14,34 -41,45 -77,32c-38,-15 -60,-54 -52,-91c9,-42 43,-57 83,-37c28,13 31,13 35,-3c5,-18 -24,-72 -38,-72c-4,0 -16,13 -26,28l-18,28l-7,-29c-4,-16 -2,-42 5,-61c11,-29 9,-37 -13,-73c-23,-35 -24,-40 -8,-43c9,-2 -23,-14 -71,-27c-77,-21 -111,-41 -95,-56c2,-2 26,2 53,11c27,8 54,12 60,10c5,-2 2,-5 -7,-5c-13,-1 -18,-9 -18,-30c0,-34 -16,-40 -100,-41c-30,-1 -73,-4 -94,-8c-31,-6 -36,-9 -25,-19c8,-6 24,-13 36,-15c16,-2 20,-7 14,-17c-7,-10 -18,-5 -51,25l-42,38l52,12c29,6 56,18 61,25c6,10 9,8 9,-8c0,-13 6,-23 14,-23c25,0 34,84 16,151c-5,19 -23,48 -39,63l-29,28l20,34c31,53 17,70 -27,32c-19,-18 -35,-37 -35,-43c0,-7 -12,-10 -32,-7c-22,3 -35,0 -45,-14c-17,-24 -17,-10 2,26c19,36 64,69 119,85l43,13l5,-67c3,-37 13,-83 23,-104c14,-31 22,-37 49,-37c62,0 136,71 136,131c0,52 -70,109 -135,109c-37,0 -31,-27 8,-35c59,-12 67,-16 83,-46l15,-30l-23,14c-40,25 -68,30 -68,12c0,-12 -3,-13 -12,-5c-7,6 -22,17 -32,24c-19,13 -19,15 -2,59c20,52 79,111 84,84c2,-8 16,-20 33,-26c25,-9 29,-8 29,8c0,10 -7,25 -17,32c-14,12 -8,15 53,24l69,10l12,-26c6,-15 16,-30 22,-33zM2104,2396c27,-8 66,-32 91,-55l45,-41h-39c-22,0 -46,-3 -54,-6c-10,-4 -14,2 -14,22c0,23 -24,54 -42,54c-3,0 -4,-25 -3,-55c3,-42 -1,-61 -16,-83c-12,-15 -24,-40 -27,-55c-7,-28 -28,-36 -41,-16c-4,7 2,19 14,28c27,21 52,99 52,161c0,44 -3,50 -21,50c-11,0 -17,-5 -14,-10c3,-6 -2,-13 -12,-17c-10,-3 -30,-15 -45,-25c-26,-18 -26,-18 -21,2c6,23 4,24 -31,10c-21,-8 -26,-16 -26,-45c0,-22 -4,-34 -10,-30c-14,8 -12,45 3,75c23,46 121,63 211,36zM2285,2240c19,-12 44,-35 56,-52l22,-30l-42,21c-27,14 -41,28 -41,41c0,11 -2,20 -4,20c-2,0 -11,3 -20,6c-13,5 -16,-1 -16,-29c0,-29 -3,-34 -19,-30c-17,4 -48,-26 -75,-74c-13,-24 31,-14 64,13l31,27l-7,-29c-8,-34 -33,-84 -34,-67c0,6 -34,19 -75,28c-64,15 -73,19 -60,31c7,8 18,14 24,14c6,0 38,25 71,55l60,55h-35c-24,0 -45,-9 -71,-32c-25,-22 -34,-26 -27,-13c13,24 52,60 73,68c27,11 88,0 125,-23zM874,2097c-13,-39 -20,-47 -40,-47c-19,0 -24,-5 -24,-25c0,-22 4,-25 40,-25c55,0 116,-27 141,-62c12,-16 20,-31 18,-33c-8,-7 -140,23 -155,36c-14,12 -14,14 2,26c17,12 17,13 -2,14c-10,1 -24,1 -31,0c-17,-2 -27,42 -19,82c4,17 7,37 8,44c1,7 14,15 30,18c15,4 31,11 34,16c14,23 13,-1 -2,-44zM300,1888c45,3 70,1 70,-6c0,-17 -73,-70 -154,-111c-72,-38 -74,-38 -80,-17c-11,40 -6,60 22,86l27,25l20,-42c14,-30 24,-40 33,-34c10,6 9,18 -8,60c-21,55 -26,77 -10,50c8,-13 22,-15 80,-11zM1079,694c28,-6 33,-12 52,-78c22,-75 43,-116 92,-179c16,-21 28,-39 26,-40c-2,-1 -18,-12 -36,-24c-17,-13 -36,-24 -41,-25c-10,-3 -65,64 -120,144c-28,40 -29,45 -11,41c26,-7 69,32 69,63c0,30 -54,74 -91,74c-65,0 -82,-29 -55,-93l13,-32l-53,9c-29,6 -49,13 -43,17c6,3 8,20 4,41c-5,25 -2,38 10,48c13,11 80,29 146,39c4,1 21,-2 38,-5z"></path><path d="M1582,2563c-10,-4 -10,-8 -1,-19c9,-11 8,-14 -8,-14c-10,0 -24,-5 -30,-11c-6,-6 -26,-14 -45,-18l-33,-8l38,-19c36,-17 41,-17 81,-3l42,15l28,-38l27,-38h-39c-22,0 -45,-6 -51,-13c-16,-20 61,-50 94,-37c12,5 26,6 29,3c15,-15 4,55 -12,75c-18,23 -18,24 12,55c26,27 37,31 67,29c20,-2 39,0 42,5c4,5 1,10 -6,11c-7,1 -29,5 -50,8c-33,5 -43,2 -67,-21c-16,-16 -27,-33 -23,-39c3,-6 -14,10 -38,36c-24,25 -50,44 -57,41z"></path><path d="M1185,2426c-35,-51 -64,-84 -74,-83c-9,0 -29,-8 -45,-18l-29,-19l24,-7c29,-7 27,-18 -13,-76c-25,-37 -28,-47 -17,-54c10,-7 6,-8 -11,-5c-60,12 -75,11 -78,-6c-3,-14 3,-18 28,-18h31l-21,-22c-32,-35 -26,-46 21,-38c55,10 78,33 61,61c-11,17 -10,25 4,47c17,25 17,26 25,5c20,-54 48,-15 35,48c-8,43 89,190 139,208l35,12l-27,25c-14,13 -27,24 -28,24c-1,0 -28,-38 -60,-84z"></path><path d="M1364,2247c-3,-9 -3,-20 0,-25c3,-5 -3,-17 -14,-27c-11,-10 -20,-22 -20,-27c0,-11 38,-10 45,2c10,16 23,12 30,-9c4,-13 -1,-27 -14,-40c-12,-12 -21,-33 -21,-48v-27l16,22c8,12 19,22 25,22c17,0 9,-26 -16,-50c-22,-21 -25,-32 -25,-93v-70l24,22c39,36 56,83 56,150v61h32c30,0 31,0 13,20c-10,11 -25,22 -34,25c-9,3 -25,21 -35,40c-10,19 -27,42 -37,51c-17,15 -19,15 -25,1z"></path><path d="M215,1698c-22,-16 -52,-41 -67,-56l-28,-26v35c0,19 -4,40 -9,47c-15,24 -31,-42 -20,-80c11,-42 45,-98 59,-98c6,0 4,-10 -4,-22c-25,-40 -24,-108 2,-108c28,0 62,28 55,46c-4,11 -9,12 -16,5c-27,-27 -37,2 -12,35c8,10 14,15 13,9c-1,-5 12,-32 30,-59c39,-61 48,-117 28,-173c-12,-34 -12,-44 -2,-53c11,-8 17,-2 30,30c24,61 20,119 -12,182c-20,40 -25,60 -18,71c11,17 -25,107 -51,128c-27,23 -24,-19 6,-75c24,-44 27,-54 12,-44c-10,6 -18,18 -17,27c0,9 -6,16 -14,16c-8,0 -23,14 -32,30c-20,35 -22,46 -8,43c14,-4 129,84 129,99c2,23 -14,20 -54,-9z"></path><path d="M2535,1030c-5,-8 -8,-23 -6,-34c1,-10 -1,-16 -6,-13c-5,3 -24,-3 -42,-14c-26,-16 -32,-25 -27,-42c3,-12 1,-29 -4,-37c-7,-11 -10,-8 -10,15c0,34 -15,63 -26,52c-4,-4 -7,-23 -6,-43c3,-75 63,-117 76,-53c3,17 6,42 6,55c0,14 8,25 20,29c11,3 20,12 21,18c2,26 17,-41 18,-80c1,-30 -5,-49 -21,-67c-27,-30 -143,-70 -258,-88c-76,-12 -100,-29 -51,-36c33,-5 172,25 253,55c94,35 111,61 105,158c-6,82 -28,148 -42,125z"></path><path d="M132,897c5,-84 24,-111 106,-155c66,-35 154,-57 269,-68c61,-6 73,-4 73,8c0,11 -28,18 -113,30c-113,16 -222,52 -261,86c-24,22 -46,74 -46,110c0,16 -7,36 -16,43c-15,12 -16,8 -12,-54z"></path><path d="M1253,798c-68,-75 -80,-149 -38,-234c32,-64 81,-112 96,-97c9,9 1,24 -30,59c-68,78 -78,161 -26,221c23,27 24,28 42,9c10,-10 12,-16 5,-12c-14,8 -51,-64 -52,-101c0,-53 48,-101 90,-88c10,3 25,21 34,40c19,39 11,86 -22,140c-18,29 -18,31 -2,32c25,2 60,-66 60,-118c0,-54 -29,-115 -86,-178c-42,-46 -46,-69 -10,-55c21,8 92,102 111,147c31,76 15,164 -45,237l-20,25l-19,-22c-18,-22 -19,-22 -36,-3c-23,25 -27,25 -52,-2z"></path><path d="M2202,655c-35,-8 -72,-17 -84,-21c-17,-5 -20,-3 -15,10c5,11 1,16 -13,16c-23,0 -27,-35 -9,-104c16,-64 48,-99 92,-100c20,-1 37,-2 37,-3c0,-36 -94,-103 -147,-103c-16,0 -23,-6 -23,-19c0,-17 4,-18 42,-9c57,12 116,47 141,80c27,36 34,128 14,184l-14,42l45,6c63,9 110,7 116,-3c9,-13 -50,-88 -89,-113c-40,-26 -51,-67 -12,-47c46,25 79,55 108,98c32,49 37,86 13,95c-26,10 -135,5 -202,-9z"></path><path d="M1763,428c-89,-118 -105,-143 -96,-152c5,-4 -17,2 -47,14c-71,27 -72,27 -77,12c-7,-18 118,-74 134,-60c7,5 11,13 10,16c-3,10 78,126 99,142c18,14 18,14 2,-6c-11,-12 -18,-37 -18,-63c0,-31 -5,-43 -17,-48c-10,-3 -35,-20 -56,-36c-30,-23 -37,-35 -35,-56c2,-20 9,-27 31,-29c19,-2 27,1 27,12c0,8 -6,16 -12,19c-16,5 16,44 43,52c11,4 19,14 19,23c0,12 4,9 13,-8c20,-40 107,-36 107,5c0,22 -46,48 -70,40c-20,-6 -21,-4 -19,57c1,51 6,69 28,98c42,55 44,60 23,60c-13,0 -44,-32 -89,-92z"></path><path d="M680,485c-8,-10 -11,-37 -8,-79l4,-65l-31,6c-60,10 -92,24 -121,51c-16,16 -37,31 -46,35c-49,18 17,-65 75,-95c22,-11 67,-23 99,-25c31,-3 55,-9 53,-13c-9,-15 56,-89 101,-116c37,-22 63,-28 124,-32c91,-5 126,7 110,38c-13,23 -40,27 -40,5c0,-11 -12,-15 -52,-15c-70,0 -144,35 -192,91l-37,44l33,8c37,9 78,49 78,76c0,40 -72,101 -118,101c-11,0 -25,-7 -32,-15z"></path><path d="M1931,486c-77,-43 -59,-162 27,-168c17,-1 32,-4 32,-6c0,-2 -9,-17 -20,-32c-23,-32 -105,-75 -162,-86c-24,-4 -38,-12 -38,-21c0,-34 149,13 204,65c39,37 58,85 57,152c0,79 -14,110 -48,110c-16,-1 -39,-7 -52,-14z"></path><path d="M1175,300c-4,-6 3,-22 16,-36l23,-24l-24,-18c-65,-47 -144,-82 -189,-82c-43,-1 -45,-2 -27,-15c11,-8 34,-15 51,-15c36,0 140,49 178,84l25,23l43,-43c33,-34 46,-41 56,-32c11,9 -1,26 -59,87c-82,85 -83,86 -93,71z"></path><path d="M1584,187c-70,-90 -123,-114 -184,-82c-20,10 -31,12 -36,4c-12,-20 23,-42 75,-47c53,-5 96,14 136,58c13,14 21,17 26,9c4,-7 30,-14 58,-17c84,-8 124,36 90,99c-8,16 -13,18 -24,9c-11,-9 -12,-16 -2,-31c9,-15 8,-22 -5,-35c-13,-13 -26,-15 -67,-9l-51,7l30,36c22,26 26,38 17,44c-18,11 -19,11 -63,-45z"></path></g></g></g></svg>