<?xml version="1.0" standalone="no"?>
<!DOCTYPE svg PUBLIC "-//W3C//DTD SVG 20010904//EN"
 "http://www.w3.org/TR/2001/REC-SVG-20010904/DTD/svg10.dtd">
<svg version="1.0" xmlns="http://www.w3.org/2000/svg"
 width="90" height="90" fill=" #DFDFDF" viewBox="0 0 271.000000 271.000000"
 preserveAspectRatio="xMidYMid meet">
<metadata>
Created by potrace 1.16, written by Peter Selinger 2001-2019
</metadata>
<g transform="translate(0.000000,271.000000) scale(0.100000,-0.100000)"
fill="#000000" stroke="none">
<path d="M1390 2649 c-13 -6 -33 -17 -42 -26 -10 -9 -18 -12 -18 -6 0 14 -46
33 -81 33 -48 0 -95 -27 -150 -88 -34 -38 -47 -58 -40 -65 7 -7 30 8 74 51 35
33 77 64 92 68 33 8 77 -5 83 -26 4 -12 1 -11 -15 3 -20 18 -58 23 -67 9 -3
-5 4 -15 16 -23 11 -8 29 -23 39 -33 19 -20 20 -20 48 14 26 32 28 32 26 10
-1 -13 -10 -26 -20 -30 -27 -9 0 -24 30 -16 13 3 27 1 31 -6 4 -6 3 -8 -3 -5
-11 7 -89 -55 -128 -101 -39 -46 -11 -50 38 -5 105 94 107 95 113 76 3 -10 9
-27 14 -38 l9 -20 0 20 c1 17 4 16 25 -10 20 -24 27 -27 37 -18 10 10 4 22
-28 61 -30 36 -37 48 -24 49 9 1 54 15 101 32 47 17 101 31 120 31 34 0 34 0
12 -16 -12 -8 -22 -26 -22 -40 0 -28 18 -32 27 -6 4 9 11 20 17 24 28 19 166
0 225 -32 l23 -12 -22 -11 c-13 -7 -27 -22 -31 -35 -8 -22 -7 -23 29 -16 20 3
42 13 48 20 10 12 13 12 24 -1 13 -16 40 -21 40 -7 0 4 -17 24 -37 44 -55 53
-123 81 -215 86 -43 2 -75 8 -72 13 9 15 -48 22 -104 12 -49 -9 -57 -8 -74 9
-36 36 -96 47 -148 27z"/>
<path d="M992 2619 c-18 -6 -35 -15 -38 -22 -3 -8 -19 -11 -43 -9 -55 5 -139
-14 -182 -43 -22 -14 -47 -44 -63 -76 -14 -29 -26 -47 -26 -40 0 9 -9 11 -32
6 -135 -29 -216 -148 -188 -274 15 -69 26 -91 45 -91 18 0 18 -2 0 50 -8 23
-15 44 -15 46 0 2 16 4 35 4 24 0 44 9 65 28 l31 27 -65 0 c-57 -1 -66 2 -66
17 0 15 9 18 50 18 51 0 110 -22 110 -40 0 -6 -4 -10 -8 -10 -5 0 -35 -25 -66
-55 -42 -41 -53 -57 -42 -61 22 -9 80 13 111 41 34 32 37 31 33 -7 -3 -31 -5
-33 -77 -49 -128 -29 -142 -30 -140 -11 3 34 -1 50 -21 73 l-20 24 6 -35 c3
-19 8 -46 10 -59 5 -23 4 -23 -50 -19 -31 3 -59 7 -62 11 -8 7 2 46 16 67 9
13 11 13 20 0 6 -8 13 -27 16 -42 4 -15 10 -25 15 -22 15 9 10 76 -7 95 -14
16 -12 20 25 50 38 30 53 59 33 59 -5 0 -27 -13 -49 -29 -47 -34 -99 -112
-108 -162 -7 -36 -6 -37 31 -49 24 -8 70 -11 131 -8 52 3 90 2 83 -2 -8 -5 -6
-11 5 -20 9 -8 13 -20 9 -32 -3 -11 2 -30 11 -45 15 -23 19 -24 27 -9 5 9 6
21 2 28 -5 8 -2 9 12 3 44 -18 62 -17 74 5 6 12 9 28 6 36 -4 9 1 14 14 14 19
0 19 -2 6 -35 -8 -19 -11 -35 -6 -35 22 0 42 15 56 41 8 17 23 29 34 29 10 0
21 8 23 18 3 9 5 0 6 -20 0 -20 3 -43 7 -51 4 -11 -11 -16 -71 -21 -42 -4
-103 -15 -136 -26 -71 -22 -270 -140 -261 -155 3 -5 -2 -4 -11 4 -22 18 -22
18 11 35 44 23 103 88 100 110 -4 27 -67 40 -128 27 -24 -5 -46 -8 -48 -6 -5
5 115 41 164 49 l42 7 -5 -48 c-3 -26 -10 -56 -15 -65 -5 -10 -5 -18 0 -18 31
0 89 133 69 158 -12 15 -50 11 -152 -15 -104 -26 -155 -52 -155 -79 0 -13 -5
-24 -11 -24 -6 0 -24 -10 -41 -21 -29 -21 -30 -25 -25 -78 2 -31 12 -73 21
-94 14 -32 20 -37 31 -27 11 9 12 17 5 30 -12 23 -13 33 -2 26 5 -3 32 6 61
19 28 14 49 20 46 15 -3 -6 1 -20 9 -32 25 -36 20 -83 -13 -121 -38 -43 -28
-70 13 -35 35 30 56 91 46 133 -6 28 -4 35 14 43 11 6 45 25 74 42 51 30 52
30 47 8 -2 -13 -7 -35 -9 -50 -3 -15 -7 -32 -11 -38 -9 -15 7 -12 31 5 26 18
54 74 54 109 0 21 7 27 38 35 51 15 60 14 34 -5 -14 -10 -22 -25 -22 -45 0
-43 16 -36 36 16 16 42 19 45 53 45 l36 0 -33 -26 c-42 -34 -56 -59 -43 -82 6
-10 11 -12 11 -4 0 7 15 19 34 27 25 11 36 23 41 45 7 32 22 36 75 21 24 -7
24 -7 -7 -14 -33 -7 -46 -27 -18 -27 10 0 15 -10 15 -27 l1 -28 37 41 38 42
54 -21 c80 -29 126 -61 157 -109 25 -37 28 -52 31 -139 5 -128 -12 -263 -36
-294 -10 -13 -31 -57 -46 -98 -28 -78 -39 -89 -166 -165 -98 -59 -86 -57 -241
-57 -167 0 -185 -7 -191 -73 l-3 -36 -55 45 c-62 50 -90 65 -91 46 0 -7 -4 -2
-9 10 -5 13 -17 23 -26 23 -31 0 -83 41 -108 85 -20 37 -21 43 -7 36 27 -15
43 -38 39 -57 -4 -23 21 -30 28 -7 3 10 15 42 26 70 12 31 17 60 13 70 -6 14
-14 5 -36 -42 -16 -33 -29 -54 -29 -47 0 8 -21 41 -47 74 -52 69 -59 106 -25
141 l22 21 29 -34 c24 -29 31 -32 36 -19 4 11 -14 46 -50 100 -51 74 -57 87
-52 122 3 21 12 46 21 56 17 19 22 51 7 51 -16 0 -50 -50 -60 -87 -12 -41 0
-80 41 -140 16 -24 23 -41 16 -38 -16 6 -29 -3 -51 -35 -25 -36 -21 -70 16
-125 27 -40 33 -57 29 -86 -3 -30 2 -43 29 -73 37 -43 88 -73 98 -58 3 6 6
-20 6 -56 0 -60 2 -67 21 -70 28 -4 59 54 41 78 -10 13 -9 13 8 0 11 -9 39
-33 63 -53 47 -41 83 -47 121 -21 18 13 22 23 18 44 l-6 27 188 6 c103 4 196
10 206 13 37 14 3 -18 -65 -62 -38 -24 -78 -56 -89 -70 -27 -34 -27 -64 -1
-64 11 0 20 6 20 13 0 15 45 59 77 76 26 13 41 -2 23 -24 -10 -12 -9 -16 4
-21 21 -8 44 11 48 39 2 16 25 33 87 65 46 23 85 41 87 39 2 -1 -4 -30 -12
-63 l-15 -60 -152 -37 c-84 -21 -176 -37 -204 -37 -41 0 -53 -4 -53 -15 0 -16
13 -19 75 -16 25 1 35 -1 28 -7 -10 -6 -5 -19 19 -53 21 -29 25 -38 11 -26
-24 21 -186 61 -220 54 -15 -3 -20 0 -16 10 3 8 -2 13 -15 13 -36 0 -82 -160
-49 -173 7 -3 7 -6 1 -6 -25 -2 -91 59 -118 109 l-29 53 76 -7 c52 -5 77 -4
82 4 11 18 2 21 -94 27 -90 6 -91 6 -91 -17 0 -39 38 -106 85 -148 104 -97
230 -72 250 48 8 46 11 47 94 21 33 -10 62 -17 64 -14 3 2 27 -23 56 -55 47
-55 51 -65 58 -127 10 -89 33 -101 34 -18 1 44 3 52 8 32 5 -14 24 -45 42 -70
19 -25 50 -68 69 -97 33 -49 56 -62 54 -31 -1 17 -109 171 -152 217 -18 19
-33 48 -37 71 l-6 39 40 4 c39 3 43 1 68 -37 49 -74 116 -155 124 -149 5 3 9
3 9 0 0 -3 -21 -17 -46 -32 -33 -19 -42 -30 -34 -38 13 -13 70 15 146 73 50
38 51 38 74 19 l23 -19 -37 -38 c-35 -35 -38 -51 -10 -51 7 0 35 28 64 61 36
44 48 65 40 73 -7 7 -15 5 -26 -6 -15 -14 -19 -13 -48 21 -172 197 -179 344
-19 438 l44 26 42 -30 c23 -17 56 -49 72 -73 26 -36 30 -50 30 -108 0 -56 -6
-79 -35 -137 -18 -38 -34 -74 -34 -80 -3 -41 74 48 145 168 27 46 42 60 77 74
23 9 46 12 50 8 4 -4 1 -10 -7 -13 -27 -9 -61 -51 -61 -75 0 -25 47 -77 71
-78 11 0 11 -2 -2 -7 -23 -10 -204 -232 -203 -248 1 -8 -21 4 -48 26 -53 42
-63 46 -72 31 -7 -10 66 -74 151 -134 41 -28 54 -33 62 -23 8 10 0 21 -35 45
l-45 33 23 28 c13 16 61 76 108 134 71 87 90 105 113 105 16 1 38 6 49 12 20
11 21 9 14 -22 l-6 -34 25 30 c13 17 25 39 25 50 1 35 39 107 60 112 28 8 26
43 -2 43 -13 0 -68 16 -123 35 -55 19 -108 35 -117 35 -30 0 -58 37 -58 75 0
19 4 35 9 35 17 0 186 -62 231 -85 86 -44 109 -99 71 -173 -15 -30 -18 -42 -9
-43 7 0 -2 -5 -19 -10 -18 -5 -33 -16 -33 -24 0 -20 -1 -20 118 12 81 22 102
31 102 45 0 10 -1 18 -2 18 -2 0 -32 -9 -68 -20 -36 -11 -68 -20 -71 -20 -4 0
4 21 17 47 28 55 30 100 7 143 -18 31 -18 31 7 52 22 18 34 20 95 15 53 -5 73
-11 85 -26 44 -58 210 -70 210 -15 0 10 -6 14 -15 10 -32 -12 -13 13 30 41 25
16 45 36 45 46 0 22 -6 21 -38 -2 -40 -28 -109 -61 -127 -61 -9 0 -24 9 -33
20 -21 25 -131 50 -225 50 -57 0 -78 5 -139 36 -130 66 -145 78 -179 152 -43
94 -81 274 -86 407 l-5 111 88 69 c102 81 117 90 162 98 44 9 43 -14 -3 -54
-19 -17 -35 -35 -35 -40 0 -16 39 -10 58 9 16 17 19 17 61 -10 25 -15 55 -28
68 -28 22 0 22 2 -13 48 -20 26 -47 51 -60 55 -35 12 -30 24 14 30 20 4 52 9
69 13 29 6 34 3 43 -20 7 -20 16 -26 39 -26 15 0 34 6 40 14 10 11 4 17 -31
29 l-43 14 52 7 c58 9 73 4 73 -24 0 -12 16 -30 39 -46 22 -14 42 -33 44 -42
3 -10 5 1 6 22 1 29 -5 47 -21 64 l-23 24 55 -22 c30 -12 74 -32 97 -46 39
-23 42 -26 32 -51 -15 -40 -2 -76 42 -118 34 -35 38 -43 33 -72 -8 -42 15 -80
61 -99 19 -8 39 -14 45 -14 13 0 13 41 0 75 -11 29 -30 25 -30 -6 0 -24 -13
-25 -31 -2 -8 9 -9 14 -3 10 17 -10 87 71 80 91 -3 10 6 4 20 -12 23 -26 25
-34 19 -80 -4 -28 -11 -66 -15 -85 -5 -19 -7 -38 -4 -43 7 -10 8 -10 -48 7
-42 12 -49 12 -63 -1 -19 -19 -19 -64 -1 -90 20 -26 43 -6 27 24 -25 47 -8 53
63 23 24 -11 52 -31 61 -45 16 -24 16 -28 -5 -72 -15 -30 -19 -49 -12 -56 14
-14 53 45 59 93 5 35 2 43 -30 73 -20 18 -32 37 -27 42 12 13 30 108 30 158 0
33 -7 52 -30 81 -31 39 -37 50 -20 40 6 -4 10 10 10 34 0 28 -7 48 -25 69 -26
31 -99 67 -116 57 -17 -11 -9 -23 23 -34 47 -17 88 -60 88 -93 0 -20 -4 -26
-15 -22 -17 7 -21 -21 -5 -31 6 -4 3 -17 -10 -33 -29 -39 -73 -89 -65 -74 4 7
1 21 -6 30 -11 14 -11 15 1 5 17 -16 45 3 31 21 -6 7 2 31 26 69 26 42 32 62
25 69 -8 8 -17 4 -32 -13 -11 -13 -19 -18 -18 -10 3 17 -76 75 -172 126 -36
20 -82 45 -104 57 -43 24 -160 30 -295 15 l-74 -9 16 24 c45 61 57 85 54 103
-3 16 2 21 25 22 24 1 30 -4 35 -28 6 -29 26 -52 56 -62 25 -9 23 37 -4 61
-15 15 -17 21 -6 25 8 3 21 -8 32 -29 20 -37 36 -41 78 -20 25 14 27 14 17 -4
-13 -24 -13 -60 0 -60 13 0 32 48 28 69 -2 8 -14 18 -28 22 -22 6 -20 7 11 8
45 1 63 -18 54 -58 -6 -30 8 -71 25 -71 14 0 13 77 -1 102 -11 20 -9 20 27 14
22 -4 66 -15 99 -24 l60 -17 -75 -5 c-67 -4 -75 -7 -78 -26 -4 -28 38 -77 86
-100 20 -11 37 -25 37 -33 0 -31 22 -18 59 36 30 44 36 57 25 64 -9 6 -10 9
-2 9 6 0 25 -11 42 -25 23 -20 31 -36 33 -67 4 -49 24 -61 33 -20 9 41 -17 99
-55 120 -16 9 -28 23 -25 29 11 29 -157 83 -328 104 -70 9 -91 9 -97 -1 -5 -8
-11 -2 -18 19 -14 41 -47 44 -38 4 3 -16 3 -22 0 -15 -4 8 -30 12 -72 13 -37
1 -59 3 -49 6 20 5 21 20 7 59 -10 24 -9 26 5 14 9 -8 72 -28 140 -45 69 -18
123 -34 121 -36 -3 -2 39 -5 91 -6 69 -2 101 -7 113 -18 22 -20 70 -20 70 1 0
8 -4 12 -10 9 -18 -11 -32 6 -15 19 35 26 -93 216 -166 246 -16 7 -26 17 -23
25 3 7 -11 31 -31 54 -52 57 -128 84 -220 78 -83 -5 -121 -21 -141 -58 -30
-59 -10 -129 48 -170 18 -13 41 -34 51 -46 10 -13 29 -23 42 -23 12 0 25 -7
29 -15 7 -18 3 -18 -57 0 -27 8 -52 13 -57 12 -9 -2 -59 58 -91 109 -16 26
-18 38 -10 53 15 27 14 56 -3 70 -12 10 -15 7 -21 -17 -9 -44 -33 -36 -37 14
-1 23 1 40 5 37 4 -2 21 -9 38 -13 26 -8 35 -5 55 15 29 29 31 66 6 88 -37 34
-123 11 -108 -28 6 -16 8 -17 24 -1 33 29 75 13 65 -25 -8 -29 -47 -23 -88 12
-27 24 -39 29 -47 21 -9 -9 -7 -16 6 -30 12 -14 18 -42 20 -103 5 -100 21
-159 43 -159 11 0 14 6 9 23 -3 12 -8 38 -10 57 -2 19 -1 27 1 16 3 -10 24
-48 47 -85 59 -93 58 -91 46 -91 -6 0 -16 14 -22 30 -10 31 -18 35 -102 44
-43 5 -47 4 -41 -12 5 -13 4 -14 -6 -5 -10 10 -9 16 3 30 16 18 21 40 19 77
-1 18 -4 17 -31 -9 -29 -28 -30 -28 -44 -9 -13 17 -12 20 13 26 33 9 57 33 42
42 -5 4 -31 7 -58 8 -39 2 -52 8 -74 33 -19 21 -31 27 -38 20 -8 -8 -2 -21 18
-45 56 -69 163 -255 124 -216 -5 4 -8 13 -8 19 0 7 -8 13 -17 15 -26 5 -24
-44 1 -58 20 -10 91 -14 91 -5 0 3 -7 17 -16 30 -16 25 -16 25 15 25 25 0 34
-6 42 -27 24 -63 -24 -102 -95 -78 -67 23 -107 73 -120 150 -6 34 -6 38 6 23
15 -19 43 -28 44 -13 3 25 -22 57 -48 62 -19 4 -35 18 -52 47 -13 22 -49 68
-79 101 -44 47 -58 57 -68 48 -10 -10 1 -26 51 -79 99 -106 137 -214 111 -312
-12 -41 -24 -52 -36 -32 -13 21 -23 -2 -14 -32 8 -29 5 -37 -29 -78 -21 -25
-54 -54 -74 -64 l-35 -20 -37 23 c-20 13 -52 47 -71 77 -40 62 -41 66 -18 57
13 -5 15 -2 10 11 -7 19 8 56 23 56 5 0 6 -24 3 -54 -5 -52 -4 -55 35 -97 l40
-43 12 42 c13 50 8 70 -25 106 -35 37 -31 52 6 26 35 -25 44 -22 35 14 -4 16
-21 34 -44 46 -20 11 -27 18 -15 15 23 -6 63 9 63 25 0 5 -16 10 -35 12 l-35
3 17 32 c10 18 32 48 50 67 l32 34 55 -53 c31 -29 59 -49 62 -44 11 18 -8 69
-37 100 -16 17 -27 35 -24 39 3 4 -2 13 -10 20 -11 9 -24 3 -66 -37 -57 -53
-109 -127 -109 -155 0 -10 -11 -23 -25 -30 -28 -13 -50 -66 -40 -100 6 -22 5
-22 -7 -3 -8 12 -13 51 -13 100 0 66 5 90 27 139 26 55 28 76 8 76 -10 0 -55
-93 -64 -135 -4 -16 -19 -58 -34 -92 -23 -54 -32 -64 -62 -73 -68 -19 -125 -9
-134 23 -3 12 2 50 11 84 16 60 19 63 48 63 18 1 42 11 59 27 29 24 29 26 11
39 -23 17 -40 18 -67 3 -18 -10 -20 -9 -14 6 6 16 4 16 -11 4 -21 -17 -18 -11
48 88 41 60 46 72 32 77 -10 4 -20 1 -24 -7 -5 -8 -18 -25 -29 -38 l-21 -24
13 25 c21 40 58 83 58 67 0 -7 11 -19 25 -25 24 -11 35 -32 16 -32 -5 0 -23
-20 -40 -45 -17 -25 -25 -45 -18 -45 24 1 97 40 103 55 4 9 12 14 20 11 7 -3
18 1 24 9 8 10 7 16 -6 23 -14 8 -13 12 10 35 17 17 26 37 26 57 l0 31 -29
-20 c-16 -12 -36 -21 -45 -21 -8 0 -19 -8 -25 -17 -14 -25 -61 -2 -61 30 0 12
-7 32 -15 44 -14 19 -13 21 16 27 17 3 42 3 55 0 14 -4 31 -1 40 7 15 12 14
14 -7 20 -34 10 -89 9 -127 -2z m-23 -113 c17 -11 25 22 10 42 -12 16 -12 16
5 1 16 -15 17 -21 5 -53 l-13 -36 -12 29 c-14 34 -41 45 -77 32 -38 -15 -60
-54 -52 -91 9 -42 43 -57 83 -37 28 13 31 13 35 -3 5 -18 -24 -72 -38 -72 -4
0 -16 13 -26 28 l-18 28 -7 -29 c-4 -16 -2 -42 5 -61 11 -29 9 -37 -13 -73
-23 -35 -24 -40 -8 -43 9 -2 -23 -14 -71 -27 -77 -21 -111 -41 -95 -56 2 -2
26 2 53 11 27 8 54 12 60 10 5 -2 2 -5 -7 -5 -13 -1 -18 -9 -18 -30 0 -34 -16
-40 -100 -41 -30 -1 -73 -4 -94 -8 -31 -6 -36 -9 -25 -19 8 -6 24 -13 36 -15
16 -2 20 -7 14 -17 -7 -10 -18 -5 -51 25 l-42 38 52 12 c29 6 56 18 61 25 6
10 9 8 9 -8 0 -13 6 -23 14 -23 25 0 34 84 16 151 -5 19 -23 48 -39 63 l-29
28 20 34 c31 53 17 70 -27 32 -19 -18 -35 -37 -35 -43 0 -7 -12 -10 -32 -7
-22 3 -35 0 -45 -14 -17 -24 -17 -10 2 26 19 36 64 69 119 85 l43 13 5 -67 c3
-37 13 -83 23 -104 14 -31 22 -37 49 -37 62 0 136 71 136 131 0 52 -70 109
-135 109 -37 0 -31 -27 8 -35 59 -12 67 -16 83 -46 l15 -30 -23 14 c-40 25
-68 30 -68 12 0 -12 -3 -13 -12 -5 -7 6 -22 17 -32 24 -19 13 -19 15 -2 59 20
52 79 111 84 84 2 -8 16 -20 33 -26 25 -9 29 -8 29 8 0 10 -7 25 -17 32 -14
12 -8 15 53 24 l69 10 12 -26 c6 -15 16 -30 22 -33z m1135 -110 c27 -8 66 -32
91 -55 l45 -41 -39 0 c-22 0 -46 -3 -54 -6 -10 -4 -14 2 -14 22 0 23 -24 54
-42 54 -3 0 -4 -25 -3 -55 3 -42 -1 -61 -16 -83 -12 -15 -24 -40 -27 -55 -7
-28 -28 -36 -41 -16 -4 7 2 19 14 28 27 21 52 99 52 161 0 44 -3 50 -21 50
-11 0 -17 -5 -14 -10 3 -6 -2 -13 -12 -17 -10 -3 -30 -15 -45 -25 -26 -18 -26
-18 -21 2 6 23 4 24 -31 10 -21 -8 -26 -16 -26 -45 0 -22 -4 -34 -10 -30 -14
8 -12 45 3 75 23 46 121 63 211 36z m181 -156 c19 -12 44 -35 56 -52 l22 -30
-42 21 c-27 14 -41 28 -41 41 0 11 -2 20 -4 20 -2 0 -11 3 -20 6 -13 5 -16 -1
-16 -29 0 -29 -3 -34 -19 -30 -17 4 -48 -26 -75 -74 -13 -24 31 -14 64 13 l31
27 -7 -29 c-8 -34 -33 -84 -34 -67 0 6 -34 19 -75 28 -64 15 -73 19 -60 31 7
8 18 14 24 14 6 0 38 25 71 55 l60 55 -35 0 c-24 0 -45 -9 -71 -32 -25 -22
-34 -26 -27 -13 13 24 52 60 73 68 27 11 88 0 125 -23z m-1411 -143 c-13 -39
-20 -47 -40 -47 -19 0 -24 -5 -24 -25 0 -22 4 -25 40 -25 55 0 116 -27 141
-62 12 -16 20 -31 18 -33 -8 -7 -140 23 -155 36 -14 12 -14 14 2 26 17 12 17
13 -2 14 -10 1 -24 1 -31 0 -17 -2 -27 42 -19 82 4 17 7 37 8 44 1 7 14 15 30
18 15 4 31 11 34 16 14 23 13 -1 -2 -44z m-574 -209 c45 3 70 1 70 -6 0 -17
-73 -70 -154 -111 -72 -38 -74 -38 -80 -17 -11 40 -6 60 22 86 l27 25 20 -42
c14 -30 24 -40 33 -34 10 6 9 18 -8 60 -21 55 -26 77 -10 50 8 -13 22 -15 80
-11z m779 -1194 c28 -6 33 -12 52 -78 22 -75 43 -116 92 -179 16 -21 28 -39
26 -40 -2 -1 -18 -12 -36 -24 -17 -13 -36 -24 -41 -25 -10 -3 -65 64 -120 144
-28 40 -29 45 -11 41 26 -7 69 32 69 63 0 30 -54 74 -91 74 -65 0 -82 -29 -55
-93 l13 -32 -53 9 c-29 6 -49 13 -43 17 6 3 8 20 4 41 -5 25 -2 38 10 48 13
11 80 29 146 39 4 1 21 -2 38 -5z"/>
<path d="M1582 2563 c-10 -4 -10 -8 -1 -19 9 -11 8 -14 -8 -14 -10 0 -24 -5
-30 -11 -6 -6 -26 -14 -45 -18 l-33 -8 38 -19 c36 -17 41 -17 81 -3 l42 15 28
-38 27 -38 -39 0 c-22 0 -45 -6 -51 -13 -16 -20 61 -50 94 -37 12 5 26 6 29 3
15 -15 4 55 -12 75 -18 23 -18 24 12 55 26 27 37 31 67 29 20 -2 39 0 42 5 4
5 1 10 -6 11 -7 1 -29 5 -50 8 -33 5 -43 2 -67 -21 -16 -16 -27 -33 -23 -39 3
-6 -14 10 -38 36 -24 25 -50 44 -57 41z"/>
<path d="M1185 2426 c-35 -51 -64 -84 -74 -83 -9 0 -29 -8 -45 -18 l-29 -19
24 -7 c29 -7 27 -18 -13 -76 -25 -37 -28 -47 -17 -54 10 -7 6 -8 -11 -5 -60
12 -75 11 -78 -6 -3 -14 3 -18 28 -18 l31 0 -21 -22 c-32 -35 -26 -46 21 -38
55 10 78 33 61 61 -11 17 -10 25 4 47 17 25 17 26 25 5 20 -54 48 -15 35 48
-8 43 89 190 139 208 l35 12 -27 25 c-14 13 -27 24 -28 24 -1 0 -28 -38 -60
-84z"/>
<path d="M1364 2247 c-3 -9 -3 -20 0 -25 3 -5 -3 -17 -14 -27 -11 -10 -20 -22
-20 -27 0 -11 38 -10 45 2 10 16 23 12 30 -9 4 -13 -1 -27 -14 -40 -12 -12
-21 -33 -21 -48 l0 -27 16 22 c8 12 19 22 25 22 17 0 9 -26 -16 -50 -22 -21
-25 -32 -25 -93 l0 -70 24 22 c39 36 56 83 56 150 l0 61 32 0 c30 0 31 0 13
20 -10 11 -25 22 -34 25 -9 3 -25 21 -35 40 -10 19 -27 42 -37 51 -17 15 -19
15 -25 1z"/>
<path d="M215 1698 c-22 -16 -52 -41 -67 -56 l-28 -26 0 35 c0 19 -4 40 -9 47
-15 24 -31 -42 -20 -80 11 -42 45 -98 59 -98 6 0 4 -10 -4 -22 -25 -40 -24
-108 2 -108 28 0 62 28 55 46 -4 11 -9 12 -16 5 -27 -27 -37 2 -12 35 8 10 14
15 13 9 -1 -5 12 -32 30 -59 39 -61 48 -117 28 -173 -12 -34 -12 -44 -2 -53
11 -8 17 -2 30 30 24 61 20 119 -12 182 -20 40 -25 60 -18 71 11 17 -25 107
-51 128 -27 23 -24 -19 6 -75 24 -44 27 -54 12 -44 -10 6 -18 18 -17 27 0 9
-6 16 -14 16 -8 0 -23 14 -32 30 -20 35 -22 46 -8 43 14 -4 129 84 129 99 2
23 -14 20 -54 -9z"/>
<path d="M2535 1030 c-5 -8 -8 -23 -6 -34 1 -10 -1 -16 -6 -13 -5 3 -24 -3
-42 -14 -26 -16 -32 -25 -27 -42 3 -12 1 -29 -4 -37 -7 -11 -10 -8 -10 15 0
34 -15 63 -26 52 -4 -4 -7 -23 -6 -43 3 -75 63 -117 76 -53 3 17 6 42 6 55 0
14 8 25 20 29 11 3 20 12 21 18 2 26 17 -41 18 -80 1 -30 -5 -49 -21 -67 -27
-30 -143 -70 -258 -88 -76 -12 -100 -29 -51 -36 33 -5 172 25 253 55 94 35
111 61 105 158 -6 82 -28 148 -42 125z"/>
<path d="M132 897 c5 -84 24 -111 106 -155 66 -35 154 -57 269 -68 61 -6 73
-4 73 8 0 11 -28 18 -113 30 -113 16 -222 52 -261 86 -24 22 -46 74 -46 110 0
16 -7 36 -16 43 -15 12 -16 8 -12 -54z"/>
<path d="M1253 798 c-68 -75 -80 -149 -38 -234 32 -64 81 -112 96 -97 9 9 1
24 -30 59 -68 78 -78 161 -26 221 23 27 24 28 42 9 10 -10 12 -16 5 -12 -14 8
-51 -64 -52 -101 0 -53 48 -101 90 -88 10 3 25 21 34 40 19 39 11 86 -22 140
-18 29 -18 31 -2 32 25 2 60 -66 60 -118 0 -54 -29 -115 -86 -178 -42 -46 -46
-69 -10 -55 21 8 92 102 111 147 31 76 15 164 -45 237 l-20 25 -19 -22 c-18
-22 -19 -22 -36 -3 -23 25 -27 25 -52 -2z"/>
<path d="M2202 655 c-35 -8 -72 -17 -84 -21 -17 -5 -20 -3 -15 10 5 11 1 16
-13 16 -23 0 -27 -35 -9 -104 16 -64 48 -99 92 -100 20 -1 37 -2 37 -3 0 -36
-94 -103 -147 -103 -16 0 -23 -6 -23 -19 0 -17 4 -18 42 -9 57 12 116 47 141
80 27 36 34 128 14 184 l-14 42 45 6 c63 9 110 7 116 -3 9 -13 -50 -88 -89
-113 -40 -26 -51 -67 -12 -47 46 25 79 55 108 98 32 49 37 86 13 95 -26 10
-135 5 -202 -9z"/>
<path d="M1763 428 c-89 -118 -105 -143 -96 -152 5 -4 -17 2 -47 14 -71 27
-72 27 -77 12 -7 -18 118 -74 134 -60 7 5 11 13 10 16 -3 10 78 126 99 142 18
14 18 14 2 -6 -11 -12 -18 -37 -18 -63 0 -31 -5 -43 -17 -48 -10 -3 -35 -20
-56 -36 -30 -23 -37 -35 -35 -56 2 -20 9 -27 31 -29 19 -2 27 1 27 12 0 8 -6
16 -12 19 -16 5 16 44 43 52 11 4 19 14 19 23 0 12 4 9 13 -8 20 -40 107 -36
107 5 0 22 -46 48 -70 40 -20 -6 -21 -4 -19 57 1 51 6 69 28 98 42 55 44 60
23 60 -13 0 -44 -32 -89 -92z"/>
<path d="M680 485 c-8 -10 -11 -37 -8 -79 l4 -65 -31 6 c-60 10 -92 24 -121
51 -16 16 -37 31 -46 35 -49 18 17 -65 75 -95 22 -11 67 -23 99 -25 31 -3 55
-9 53 -13 -9 -15 56 -89 101 -116 37 -22 63 -28 124 -32 91 -5 126 7 110 38
-13 23 -40 27 -40 5 0 -11 -12 -15 -52 -15 -70 0 -144 35 -192 91 l-37 44 33
8 c37 9 78 49 78 76 0 40 -72 101 -118 101 -11 0 -25 -7 -32 -15z"/>
<path d="M1931 486 c-77 -43 -59 -162 27 -168 17 -1 32 -4 32 -6 0 -2 -9 -17
-20 -32 -23 -32 -105 -75 -162 -86 -24 -4 -38 -12 -38 -21 0 -34 149 13 204
65 39 37 58 85 57 152 0 79 -14 110 -48 110 -16 -1 -39 -7 -52 -14z"/>
<path d="M1175 300 c-4 -6 3 -22 16 -36 l23 -24 -24 -18 c-65 -47 -144 -82
-189 -82 -43 -1 -45 -2 -27 -15 11 -8 34 -15 51 -15 36 0 140 49 178 84 l25
23 43 -43 c33 -34 46 -41 56 -32 11 9 -1 26 -59 87 -82 85 -83 86 -93 71z"/>
<path d="M1584 187 c-70 -90 -123 -114 -184 -82 -20 10 -31 12 -36 4 -12 -20
23 -42 75 -47 53 -5 96 14 136 58 13 14 21 17 26 9 4 -7 30 -14 58 -17 84 -8
124 36 90 99 -8 16 -13 18 -24 9 -11 -9 -12 -16 -2 -31 9 -15 8 -22 -5 -35
-13 -13 -26 -15 -67 -9 l-51 7 30 36 c22 26 26 38 17 44 -18 11 -19 11 -63
-45z"/>
</g>
</svg>
