<?xml version="1.0" encoding="utf-8"?><svg viewBox="0 0 106.667 106.667" xmlns="http://www.w3.org/2000/svg" xmlns:xlink="http://www.w3.org/1999/xlink"><style>:root>svg{display:none}:root>svg:target{display:block}</style><svg fill="none" viewBox="0 0 16 16" id="Pinterest" xmlns="http://www.w3.org/2000/svg"><path d="M15.5 8a7.749 7.749 0 0 1-7.75 7.75c-.813 0-1.594-.094-2.313-.344.313-.5.782-1.344.97-2.031.093-.344.468-1.844.468-1.844.25.5 1 .906 1.781.906 2.344 0 4.031-2.156 4.031-4.812 0-2.563-2.093-4.5-4.78-4.5-3.345 0-5.126 2.25-5.126 4.688 0 1.156.594 2.562 1.563 3.03.156.063.25.032.281-.124 0-.094.156-.625.219-.875 0-.063 0-.156-.063-.219-.312-.375-.562-1.094-.562-1.781 0-1.688 1.281-3.344 3.5-3.344 1.875 0 3.218 1.281 3.218 3.156 0 2.094-1.062 3.532-2.437 3.532-.75 0-1.313-.626-1.156-1.376C7.562 8.876 8 7.875 8 7.22c0-.594-.313-1.094-.969-1.094-.781 0-1.406.813-1.406 1.875 0 .688.219 1.156.219 1.156s-.75 3.25-.907 3.844c-.156.688-.093 1.625-.03 2.219A7.714 7.714 0 0 1 0 8 7.749 7.749 0 0 1 7.75.25 7.749 7.749 0 0 1 15.5 8Z" fill="#707070"/></svg><svg fill="none" viewBox="0 0 16 12" id="envelope" xmlns="http://www.w3.org/2000/svg"><path d="M14.5 0h-13A1.5 1.5 0 0 0 0 1.5v9c0 .844.656 1.5 1.5 1.5h13a1.5 1.5 0 0 0 1.5-1.5v-9c0-.813-.688-1.5-1.5-1.5Zm0 1.5v1.281c-.719.594-1.844 1.469-4.219 3.344C9.75 6.531 8.72 7.531 8 7.5c-.75.031-1.781-.969-2.313-1.375-2.375-1.875-3.5-2.75-4.187-3.344V1.5h13Zm-13 9V4.719c.688.562 1.719 1.375 3.25 2.593C5.438 7.845 6.656 9.033 8 9c1.313.031 2.5-1.156 3.219-1.688A510.233 510.233 0 0 1 14.5 4.72V10.5h-13Z" fill="#363838"/></svg><svg fill="none" viewBox="0 0 16 16" id="facebook" xmlns="http://www.w3.org/2000/svg"><path d="M15.75 8a7.74 7.74 0 0 1-6.563 7.656V10.25H11L11.344 8H9.188V6.562c0-.625.312-1.218 1.28-1.218h.97V3.437s-.876-.156-1.75-.156c-1.75 0-2.907 1.094-2.907 3.031V8H4.813v2.25H6.78v5.406C3.063 15.094.25 11.875.25 8A7.749 7.749 0 0 1 8 .25 7.749 7.749 0 0 1 15.75 8Z" fill="#707070"/></svg><svg viewBox="0 0 256 200.65" id="icon_menu" xmlns="http://www.w3.org/2000/svg"><g fill="#dfdfdf" stroke-miterlimit="10" font-family="none" font-weight="none" font-size="none" text-anchor="none" style="mix-blend-mode:normal"><path d="M245.333 179.893H10.667C4.779 179.893 0 184.543 0 190.27c0 5.729 4.779 10.378 10.667 10.378h234.666c5.888 0 10.667-4.65 10.667-10.378 0-5.729-4.779-10.378-10.667-10.378zM245.622 0H100.324C94.595 0 89.946 4.65 89.946 10.38c0 5.729 4.65 10.378 10.378 10.378h145.298c5.729 0 10.378-4.65 10.378-10.378C256 4.65 251.35.001 245.622.001zM245.333 62.27H10.667C4.779 62.27 0 66.921 0 72.65c0 5.728 4.779 10.378 10.667 10.378h234.666c5.888 0 10.667-4.65 10.667-10.379 0-5.729-4.779-10.378-10.667-10.378zM245.622 124.541H100.324c-5.729 0-10.378 4.65-10.378 10.379 0 5.728 4.65 10.378 10.378 10.378h145.298c5.729 0 10.378-4.65 10.378-10.378 0-5.73-4.65-10.379-10.378-10.379z"/></g></svg><svg fill="none" viewBox="0 0 14 15" id="instagram" xmlns="http://www.w3.org/2000/svg"><path d="M7 3.406c1.969 0 3.594 1.625 3.594 3.594 0 2-1.625 3.594-3.594 3.594C5 10.594 3.406 9 3.406 7A3.594 3.594 0 0 1 7 3.406Zm0 5.938c1.281 0 2.313-1.031 2.313-2.344A2.307 2.307 0 0 0 7 4.687C5.687 4.688 4.656 5.72 4.656 7A2.34 2.34 0 0 0 7 9.344Zm4.563-6.063a.84.84 0 0 1-.844.844.84.84 0 0 1-.844-.844.84.84 0 0 1 .844-.844.84.84 0 0 1 .844.844Zm2.374.844c.063 1.156.063 4.625 0 5.781-.062 1.125-.312 2.094-1.124 2.938-.813.812-1.813 1.062-2.938 1.125-1.156.062-4.625.062-5.781 0-1.125-.063-2.094-.313-2.938-1.125C.344 12 .094 11.03.031 9.906-.03 8.75-.03 5.281.031 4.125.094 3 .344 2 1.156 1.187 2 .375 2.97.125 4.094.063 5.25 0 8.719 0 9.875.063 11 .126 12 .376 12.813 1.188 13.624 2 13.874 3 13.937 4.126Zm-1.5 7c.376-.906.282-3.094.282-4.125 0-1 .094-3.188-.281-4.125-.25-.594-.72-1.094-1.313-1.313C10.187 1.188 8 1.282 7 1.282c-1.031 0-3.219-.095-4.125.28a2.41 2.41 0 0 0-1.344 1.313C1.156 3.813 1.25 6 1.25 7c0 1.031-.094 3.219.281 4.125a2.37 2.37 0 0 0 1.344 1.344c.906.375 3.094.281 4.125.281 1 0 3.188.094 4.125-.281.594-.25 1.094-.719 1.313-1.344Z" fill="#707070"/></svg><svg version="1.0" fill="#DFDFDF" viewBox="0 0 271 271" id="logo" xmlns="http://www.w3.org/2000/svg"><g fill="#000"><path d="M139 6.1c-1.3.6-3.3 1.7-4.2 2.6-1 .9-1.8 1.2-1.8.6 0-1.4-4.6-3.3-8.1-3.3-4.8 0-9.5 2.7-15 8.8-3.4 3.8-4.7 5.8-4 6.5.7.7 3-.8 7.4-5.1 3.5-3.3 7.7-6.4 9.2-6.8 3.3-.8 7.7.5 8.3 2.6.4 1.2.1 1.1-1.5-.3-2-1.8-5.8-2.3-6.7-.9-.3.5.4 1.5 1.6 2.3 1.1.8 2.9 2.3 3.9 3.3 1.9 2 2 2 4.8-1.4 2.6-3.2 2.8-3.2 2.6-1-.1 1.3-1 2.6-2 3-2.7.9 0 2.4 3 1.6 1.3-.3 2.7-.1 3.1.6.4.6.3.8-.3.5-1.1-.7-8.9 5.5-12.8 10.1-3.9 4.6-1.1 5 3.8.5 10.5-9.4 10.7-9.5 11.3-7.6.3 1 .9 2.7 1.4 3.8l.9 2v-2c.1-1.7.4-1.6 2.5 1 2 2.4 2.7 2.7 3.7 1.8 1-1 .4-2.2-2.8-6.1-3-3.6-3.7-4.8-2.4-4.9.9-.1 5.4-1.5 10.1-3.2 4.7-1.7 10.1-3.1 12-3.1 3.4 0 3.4 0 1.2 1.6-1.2.8-2.2 2.6-2.2 4 0 2.8 1.8 3.2 2.7.6.4-.9 1.1-2 1.7-2.4 2.8-1.9 16.6 0 22.5 3.2l2.3 1.2-2.2 1.1c-1.3.7-2.7 2.2-3.1 3.5-.8 2.2-.7 2.3 2.9 1.6 2-.3 4.2-1.3 4.8-2 1-1.2 1.3-1.2 2.4.1 1.3 1.6 4 2.1 4 .7 0-.4-1.7-2.4-3.7-4.4-5.5-5.3-12.3-8.1-21.5-8.6-4.3-.2-7.5-.8-7.2-1.3.9-1.5-4.8-2.2-10.4-1.2-4.9.9-5.7.8-7.4-.9-3.6-3.6-9.6-4.7-14.8-2.7z"/><path d="M99.2 9.1c-1.8.6-3.5 1.5-3.8 2.2-.3.8-1.9 1.1-4.3.9-5.5-.5-13.9 1.4-18.2 4.3-2.2 1.4-4.7 4.4-6.3 7.6-1.4 2.9-2.6 4.7-2.6 4 0-.9-.9-1.1-3.2-.6C47.3 30.4 39.2 42.3 42 54.9c1.5 6.9 2.6 9.1 4.5 9.1 1.8 0 1.8.2 0-5-.8-2.3-1.5-4.4-1.5-4.6 0-.2 1.6-.4 3.5-.4 2.4 0 4.4-.9 6.5-2.8l3.1-2.7h-6.5c-5.7.1-6.6-.2-6.6-1.7s.9-1.8 5-1.8c5.1 0 11 2.2 11 4 0 .6-.4 1-.8 1-.5 0-3.5 2.5-6.6 5.5-4.2 4.1-5.3 5.7-4.2 6.1 2.2.9 8-1.3 11.1-4.1 3.4-3.2 3.7-3.1 3.3.7-.3 3.1-.5 3.3-7.7 4.9-12.8 2.9-14.2 3-14 1.1.3-3.4-.1-5-2.1-7.3l-2-2.4.6 3.5c.3 1.9.8 4.6 1 5.9.5 2.3.4 2.3-5 1.9-3.1-.3-5.9-.7-6.2-1.1-.8-.7.2-4.6 1.6-6.7.9-1.3 1.1-1.3 2 0 .6.8 1.3 2.7 1.6 4.2.4 1.5 1 2.5 1.5 2.2 1.5-.9 1-7.6-.7-9.5-1.4-1.6-1.2-2 2.5-5 3.8-3 5.3-5.9 3.3-5.9-.5 0-2.7 1.3-4.9 2.9-4.7 3.4-9.9 11.2-10.8 16.2-.7 3.6-.6 3.7 3.1 4.9 2.4.8 7 1.1 13.1.8 5.2-.3 9-.2 8.3.2-.8.5-.6 1.1.5 2 .9.8 1.3 2 .9 3.2-.3 1.1.2 3 1.1 4.5 1.5 2.3 1.9 2.4 2.7.9.5-.9.6-2.1.2-2.8-.5-.8-.2-.9 1.2-.3 4.4 1.8 6.2 1.7 7.4-.5.6-1.2.9-2.8.6-3.6-.4-.9.1-1.4 1.4-1.4 1.9 0 1.9.2.6 3.5-.8 1.9-1.1 3.5-.6 3.5 2.2 0 4.2-1.5 5.6-4.1.8-1.7 2.3-2.9 3.4-2.9 1 0 2.1-.8 2.3-1.8.3-.9.5 0 .6 2 0 2 .3 4.3.7 5.1.4 1.1-1.1 1.6-7.1 2.1-4.2.4-10.3 1.5-13.6 2.6-7.1 2.2-27 14-26.1 15.5.3.5-.2.4-1.1-.4-2.2-1.8-2.2-1.8 1.1-3.5 4.4-2.3 10.3-8.8 10-11-.4-2.7-6.7-4-12.8-2.7-2.4.5-4.6.8-4.8.6-.5-.5 11.5-4.1 16.4-4.9l4.2-.7-.5 4.8c-.3 2.6-1 5.6-1.5 6.5-.5 1-.5 1.8 0 1.8 3.1 0 8.9-13.3 6.9-15.8-1.2-1.5-5-1.1-15.2 1.5C23.1 75.3 18 77.9 18 80.6c0 1.3-.5 2.4-1.1 2.4-.6 0-2.4 1-4.1 2.1-2.9 2.1-3 2.5-2.5 7.8.2 3.1 1.2 7.3 2.1 9.4 1.4 3.2 2 3.7 3.1 2.7 1.1-.9 1.2-1.7.5-3-1.2-2.3-1.3-3.3-.2-2.6.5.3 3.2-.6 6.1-1.9 2.8-1.4 4.9-2 4.6-1.5-.3.6.1 2 .9 3.2 2.5 3.6 2 8.3-1.3 12.1-3.8 4.3-2.8 7 1.3 3.5 3.5-3 5.6-9.1 4.6-13.3-.6-2.8-.4-3.5 1.4-4.3 1.1-.6 4.5-2.5 7.4-4.2 5.1-3 5.2-3 4.7-.8-.2 1.3-.7 3.5-.9 5-.3 1.5-.7 3.2-1.1 3.8-.9 1.5.7 1.2 3.1-.5 2.6-1.8 5.4-7.4 5.4-10.9 0-2.1.7-2.7 3.8-3.5 5.1-1.5 6-1.4 3.4.5-1.4 1-2.2 2.5-2.2 4.5 0 4.3 1.6 3.6 3.6-1.6 1.6-4.2 1.9-4.5 5.3-4.5h3.6l-3.3 2.6c-4.2 3.4-5.6 5.9-4.3 8.2.6 1 1.1 1.2 1.1.4 0-.7 1.5-1.9 3.4-2.7 2.5-1.1 3.6-2.3 4.1-4.5.7-3.2 2.2-3.6 7.5-2.1 2.4.7 2.4.7-.7 1.4-3.3.7-4.6 2.7-1.8 2.7 1 0 1.5 1 1.5 2.7l.1 2.8 3.7-4.1 3.8-4.2 5.4 2.1c8 2.9 12.6 6.1 15.7 10.9 2.5 3.7 2.8 5.2 3.1 13.9.5 12.8-1.2 26.3-3.6 29.4-1 1.3-3.1 5.7-4.6 9.8-2.8 7.8-3.9 8.9-16.6 16.5-9.8 5.9-8.6 5.7-24.1 5.7-16.7 0-18.5.7-19.1 7.3l-.3 3.6-5.5-4.5c-6.2-5-9-6.5-9.1-4.6 0 .7-.4.2-.9-1-.5-1.3-1.7-2.3-2.6-2.3-3.1 0-8.3-4.1-10.8-8.5-2-3.7-2.1-4.3-.7-3.6 2.7 1.5 4.3 3.8 3.9 5.7-.4 2.3 2.1 3 2.8.7.3-1 1.5-4.2 2.6-7 1.2-3.1 1.7-6 1.3-7-.6-1.4-1.4-.5-3.6 4.2-1.6 3.3-2.9 5.4-2.9 4.7 0-.8-2.1-4.1-4.7-7.4-5.2-6.9-5.9-10.6-2.5-14.1l2.2-2.1 2.9 3.4c2.4 2.9 3.1 3.2 3.6 1.9.4-1.1-1.4-4.6-5-10-5.1-7.4-5.7-8.7-5.2-12.2.3-2.1 1.2-4.6 2.1-5.6 1.7-1.9 2.2-5.1.7-5.1-1.6 0-5 5-6 8.7-1.2 4.1 0 8 4.1 14 1.6 2.4 2.3 4.1 1.6 3.8-1.6-.6-2.9.3-5.1 3.5-2.5 3.6-2.1 7 1.6 12.5 2.7 4 3.3 5.7 2.9 8.6-.3 3 .2 4.3 2.9 7.3 3.7 4.3 8.8 7.3 9.8 5.8.3-.6.6 2 .6 5.6 0 6 .2 6.7 2.1 7 2.8.4 5.9-5.4 4.1-7.8-1-1.3-.9-1.3.8 0 1.1.9 3.9 3.3 6.3 5.3 4.7 4.1 8.3 4.7 12.1 2.1 1.8-1.3 2.2-2.3 1.8-4.4l-.6-2.7 18.8-.6c10.3-.4 19.6-1 20.6-1.3 3.7-1.4.3 1.8-6.5 6.2-3.8 2.4-7.8 5.6-8.9 7-2.7 3.4-2.7 6.4-.1 6.4 1.1 0 2-.6 2-1.3 0-1.5 4.5-5.9 7.7-7.6 2.6-1.3 4.1.2 2.3 2.4-1 1.2-.9 1.6.4 2.1 2.1.8 4.4-1.1 4.8-3.9.2-1.6 2.5-3.3 8.7-6.5 4.6-2.3 8.5-4.1 8.7-3.9.2.1-.4 3-1.2 6.3l-1.5 6-15.2 3.7c-8.4 2.1-17.6 3.7-20.4 3.7-4.1 0-5.3.4-5.3 1.5 0 1.6 1.3 1.9 7.5 1.6 2.5-.1 3.5.1 2.8.7-1 .6-.5 1.9 1.9 5.3 2.1 2.9 2.5 3.8 1.1 2.6-2.4-2.1-18.6-6.1-22-5.4-1.5.3-2 0-1.6-1 .3-.8-.2-1.3-1.5-1.3-3.6 0-8.2 16-4.9 17.3.7.3.7.6.1.6-2.5.2-9.1-5.9-11.8-10.9l-2.9-5.3 7.6.7c5.2.5 7.7.4 8.2-.4 1.1-1.8.2-2.1-9.4-2.7-9-.6-9.1-.6-9.1 1.7 0 3.9 3.8 10.6 8.5 14.8 10.4 9.7 23 7.2 25-4.8.8-4.6 1.1-4.7 9.4-2.1 3.3 1 6.2 1.7 6.4 1.4.3-.2 2.7 2.3 5.6 5.5 4.7 5.5 5.1 6.5 5.8 12.7 1 8.9 3.3 10.1 3.4 1.8.1-4.4.3-5.2.8-3.2.5 1.4 2.4 4.5 4.2 7 1.9 2.5 5 6.8 6.9 9.7 3.3 4.9 5.6 6.2 5.4 3.1-.1-1.7-10.9-17.1-15.2-21.7-1.8-1.9-3.3-4.8-3.7-7.1l-.6-3.9 4-.4c3.9-.3 4.3-.1 6.8 3.7 4.9 7.4 11.6 15.5 12.4 14.9.5-.3.9-.3.9 0s-2.1 1.7-4.6 3.2c-3.3 1.9-4.2 3-3.4 3.8 1.3 1.3 7-1.5 14.6-7.3 5-3.8 5.1-3.8 7.4-1.9l2.3 1.9-3.7 3.8c-3.5 3.5-3.8 5.1-1 5.1.7 0 3.5-2.8 6.4-6.1 3.6-4.4 4.8-6.5 4-7.3-.7-.7-1.5-.5-2.6.6-1.5 1.4-1.9 1.3-4.8-2.1-17.2-19.7-17.9-34.4-1.9-43.8l4.4-2.6 4.2 3c2.3 1.7 5.6 4.9 7.2 7.3 2.6 3.6 3 5 3 10.8 0 5.6-.6 7.9-3.5 13.7-1.8 3.8-3.4 7.4-3.4 8-.3 4.1 7.4-4.8 14.5-16.8 2.7-4.6 4.2-6 7.7-7.4 2.3-.9 4.6-1.2 5-.8.4.4.1 1-.7 1.3-2.7.9-6.1 5.1-6.1 7.5 0 2.5 4.7 7.7 7.1 7.8 1.1 0 1.1.2-.2.7-2.3 1-20.4 23.2-20.3 24.8.1.8-2.1-.4-4.8-2.6-5.3-4.2-6.3-4.6-7.2-3.1-.7 1 6.6 7.4 15.1 13.4 4.1 2.8 5.4 3.3 6.2 2.3.8-1 0-2.1-3.5-4.5l-4.5-3.3 2.3-2.8c1.3-1.6 6.1-7.6 10.8-13.4 7.1-8.7 9-10.5 11.3-10.5 1.6-.1 3.8-.6 4.9-1.2 2-1.1 2.1-.9 1.4 2.2l-.6 3.4 2.5-3c1.3-1.7 2.5-3.9 2.5-5 .1-3.5 3.9-10.7 6-11.2 2.8-.8 2.6-4.3-.2-4.3-1.3 0-6.8-1.6-12.3-3.5-5.5-1.9-10.8-3.5-11.7-3.5-3 0-5.8-3.7-5.8-7.5 0-1.9.4-3.5.9-3.5 1.7 0 18.6 6.2 23.1 8.5 8.6 4.4 10.9 9.9 7.1 17.3-1.5 3-1.8 4.2-.9 4.3.7 0-.2.5-1.9 1-1.8.5-3.3 1.6-3.3 2.4 0 2-.1 2 11.8-1.2 8.1-2.2 10.2-3.1 10.2-4.5 0-1-.1-1.8-.2-1.8-.2 0-3.2.9-6.8 2-3.6 1.1-6.8 2-7.1 2-.4 0 .4-2.1 1.7-4.7 2.8-5.5 3-10 .7-14.3-1.8-3.1-1.8-3.1.7-5.2 2.2-1.8 3.4-2 9.5-1.5 5.3.5 7.3 1.1 8.5 2.6 4.4 5.8 21 7 21 1.5 0-1-.6-1.4-1.5-1-3.2 1.2-1.3-1.3 3-4.1 2.5-1.6 4.5-3.6 4.5-4.6 0-2.2-.6-2.1-3.8.2-4 2.8-10.9 6.1-12.7 6.1-.9 0-2.4-.9-3.3-2-2.1-2.5-13.1-5-22.5-5-5.7 0-7.8-.5-13.9-3.6-13-6.6-14.5-7.8-17.9-15.2-4.3-9.4-8.1-27.4-8.6-40.7l-.5-11.1 8.8-6.9c10.2-8.1 11.7-9 16.2-9.8 4.4-.9 4.3 1.4-.3 5.4-1.9 1.7-3.5 3.5-3.5 4 0 1.6 3.9 1 5.8-.9 1.6-1.7 1.9-1.7 6.1 1 2.5 1.5 5.5 2.8 6.8 2.8 2.2 0 2.2-.2-1.3-4.8-2-2.6-4.7-5.1-6-5.5-3.5-1.2-3-2.4 1.4-3 2-.4 5.2-.9 6.9-1.3 2.9-.6 3.4-.3 4.3 2 .7 2 1.6 2.6 3.9 2.6 1.5 0 3.4-.6 4-1.4 1-1.1.4-1.7-3.1-2.9l-4.3-1.4 5.2-.7c5.8-.9 7.3-.4 7.3 2.4 0 1.2 1.6 3 3.9 4.6 2.2 1.4 4.2 3.3 4.4 4.2.3 1 .5-.1.6-2.2.1-2.9-.5-4.7-2.1-6.4l-2.3-2.4L225 92c3 1.2 7.4 3.2 9.7 4.6 3.9 2.3 4.2 2.6 3.2 5.1-1.5 4-.2 7.6 4.2 11.8 3.4 3.5 3.8 4.3 3.3 7.2-.8 4.2 1.5 8 6.1 9.9 1.9.8 3.9 1.4 4.5 1.4 1.3 0 1.3-4.1 0-7.5-1.1-2.9-3-2.5-3 .6 0 2.4-1.3 2.5-3.1.2-.8-.9-.9-1.4-.3-1 1.7 1 8.7-7.1 8-9.1-.3-1 .6-.4 2 1.2 2.3 2.6 2.5 3.4 1.9 8-.4 2.8-1.1 6.6-1.5 8.5-.5 1.9-.7 3.8-.4 4.3.7 1 .8 1-4.8-.7-4.2-1.2-4.9-1.2-6.3.1-1.9 1.9-1.9 6.4-.1 9 2 2.6 4.3.6 2.7-2.4-2.5-4.7-.8-5.3 6.3-2.3 2.4 1.1 5.2 3.1 6.1 4.5 1.6 2.4 1.6 2.8-.5 7.2-1.5 3-1.9 4.9-1.2 5.6 1.4 1.4 5.3-4.5 5.9-9.3.5-3.5.2-4.3-3-7.3-2-1.8-3.2-3.7-2.7-4.2 1.2-1.3 3-10.8 3-15.8 0-3.3-.7-5.2-3-8.1-3.1-3.9-3.7-5-2-4 .6.4 1-1 1-3.4 0-2.8-.7-4.8-2.5-6.9-2.6-3.1-9.9-6.7-11.6-5.7-1.7 1.1-.9 2.3 2.3 3.4 4.7 1.7 8.8 6 8.8 9.3 0 2-.4 2.6-1.5 2.2-1.7-.7-2.1 2.1-.5 3.1.6.4.3 1.7-1 3.3-2.9 3.9-7.3 8.9-6.5 7.4.4-.7.1-2.1-.6-3-1.1-1.4-1.1-1.5.1-.5 1.7 1.6 4.5-.3 3.1-2.1-.6-.7.2-3.1 2.6-6.9 2.6-4.2 3.2-6.2 2.5-6.9-.8-.8-1.7-.4-3.2 1.3-1.1 1.3-1.9 1.8-1.8 1 .3-1.7-7.6-7.5-17.2-12.6-3.6-2-8.2-4.5-10.4-5.7-4.3-2.4-16-3-29.5-1.5l-7.4.9 1.6-2.4c4.5-6.1 5.7-8.5 5.4-10.3-.3-1.6.2-2.1 2.5-2.2 2.4-.1 3 .4 3.5 2.8.6 2.9 2.6 5.2 5.6 6.2 2.5.9 2.3-3.7-.4-6.1-1.5-1.5-1.7-2.1-.6-2.5.8-.3 2.1.8 3.2 2.9 2 3.7 3.6 4.1 7.8 2 2.5-1.4 2.7-1.4 1.7.4-1.3 2.4-1.3 6 0 6s3.2-4.8 2.8-6.9c-.2-.8-1.4-1.8-2.8-2.2-2.2-.6-2-.7 1.1-.8 4.5-.1 6.3 1.8 5.4 5.8-.6 3 .8 7.1 2.5 7.1 1.4 0 1.3-7.7-.1-10.2-1.1-2-.9-2 2.7-1.4 2.2.4 6.6 1.5 9.9 2.4l6 1.7-7.5.5c-6.7.4-7.5.7-7.8 2.6-.4 2.8 3.8 7.7 8.6 10 2 1.1 3.7 2.5 3.7 3.3 0 3.1 2.2 1.8 5.9-3.6 3-4.4 3.6-5.7 2.5-6.4-.9-.6-1-.9-.2-.9.6 0 2.5 1.1 4.2 2.5 2.3 2 3.1 3.6 3.3 6.7.4 4.9 2.4 6.1 3.3 2 .9-4.1-1.7-9.9-5.5-12-1.6-.9-2.8-2.3-2.5-2.9 1.1-2.9-15.7-8.3-32.8-10.4-7-.9-9.1-.9-9.7.1-.5.8-1.1.2-1.8-1.9-1.4-4.1-4.7-4.4-3.8-.4.3 1.6.3 2.2 0 1.5-.4-.8-3-1.2-7.2-1.3-3.7-.1-5.9-.3-4.9-.6 2-.5 2.1-2 .7-5.9-1-2.4-.9-2.6.5-1.4.9.8 7.2 2.8 14 4.5 6.9 1.8 12.3 3.4 12.1 3.6-.3.2 3.9.5 9.1.6 6.9.2 10.1.7 11.3 1.8 2.2 2 7 2 7-.1 0-.8-.4-1.2-1-.9-1.8 1.1-3.2-.6-1.5-1.9C248 65 235.2 46 227.9 43c-1.6-.7-2.6-1.7-2.3-2.5.3-.7-1.1-3.1-3.1-5.4-5.2-5.7-12.8-8.4-22-7.8-8.3.5-12.1 2.1-14.1 5.8-3 5.9-1 12.9 4.8 17 1.8 1.3 4.1 3.4 5.1 4.6 1 1.3 2.9 2.3 4.2 2.3 1.2 0 2.5.7 2.9 1.5.7 1.8.3 1.8-5.7 0-2.7-.8-5.2-1.3-5.7-1.2-.9.2-5.9-5.8-9.1-10.9-1.6-2.6-1.8-3.8-1-5.3 1.5-2.7 1.4-5.6-.3-7-1.2-1-1.5-.7-2.1 1.7-.9 4.4-3.3 3.6-3.7-1.4-.1-2.3.1-4 .5-3.7.4.2 2.1.9 3.8 1.3 2.6.8 3.5.5 5.5-1.5 2.9-2.9 3.1-6.6.6-8.8-3.7-3.4-12.3-1.1-10.8 2.8.6 1.6.8 1.7 2.4.1 3.3-2.9 7.5-1.3 6.5 2.5-.8 2.9-4.7 2.3-8.8-1.2-2.7-2.4-3.9-2.9-4.7-2.1-.9.9-.7 1.6.6 3 1.2 1.4 1.8 4.2 2 10.3.5 10 2.1 15.9 4.3 15.9 1.1 0 1.4-.6.9-2.3-.3-1.2-.8-3.8-1-5.7-.2-1.9-.1-2.7.1-1.6.3 1 2.4 4.8 4.7 8.5 5.9 9.3 5.8 9.1 4.6 9.1-.6 0-1.6-1.4-2.2-3-1-3.1-1.8-3.5-10.2-4.4-4.3-.5-4.7-.4-4.1 1.2.5 1.3.4 1.4-.6.5-1-1-.9-1.6.3-3 1.6-1.8 2.1-4 1.9-7.7-.1-1.8-.4-1.7-3.1.9-2.9 2.8-3 2.8-4.4.9-1.3-1.7-1.2-2 1.3-2.6 3.3-.9 5.7-3.3 4.2-4.2-.5-.4-3.1-.7-5.8-.8-3.9-.2-5.2-.8-7.4-3.3-1.9-2.1-3.1-2.7-3.8-2-.8.8-.2 2.1 1.8 4.5 5.6 6.9 16.3 25.5 12.4 21.6-.5-.4-.8-1.3-.8-1.9 0-.7-.8-1.3-1.7-1.5-2.6-.5-2.4 4.4.1 5.8 2 1 9.1 1.4 9.1.5 0-.3-.7-1.7-1.6-3-1.6-2.5-1.6-2.5 1.5-2.5 2.5 0 3.4.6 4.2 2.7 2.4 6.3-2.4 10.2-9.5 7.8-6.7-2.3-10.7-7.3-12-15-.6-3.4-.6-3.8.6-2.3 1.5 1.9 4.3 2.8 4.4 1.3.3-2.5-2.2-5.7-4.8-6.2-1.9-.4-3.5-1.8-5.2-4.7-1.3-2.2-4.9-6.8-7.9-10.1-4.4-4.7-5.8-5.7-6.8-4.8-1 1 .1 2.6 5.1 7.9 9.9 10.6 13.7 21.4 11.1 31.2-1.2 4.1-2.4 5.2-3.6 3.2-1.3-2.1-2.3.2-1.4 3.2.8 2.9.5 3.7-2.9 7.8-2.1 2.5-5.4 5.4-7.4 6.4l-3.5 2-3.7-2.3c-2-1.3-5.2-4.7-7.1-7.7-4-6.2-4.1-6.6-1.8-5.7 1.3.5 1.5.2 1-1.1-.7-1.9.8-5.6 2.3-5.6.5 0 .6 2.4.3 5.4-.5 5.2-.4 5.5 3.5 9.7l4 4.3 1.2-4.2c1.3-5 .8-7-2.5-10.6-3.5-3.7-3.1-5.2.6-2.6 3.5 2.5 4.4 2.2 3.5-1.4-.4-1.6-2.1-3.4-4.4-4.6-2-1.1-2.7-1.8-1.5-1.5 2.3.6 6.3-.9 6.3-2.5 0-.5-1.6-1-3.5-1.2l-3.5-.3 1.7-3.2c1-1.8 3.2-4.8 5-6.7l3.2-3.4 5.5 5.3c3.1 2.9 5.9 4.9 6.2 4.4 1.1-1.8-.8-6.9-3.7-10-1.6-1.7-2.7-3.5-2.4-3.9.3-.4-.2-1.3-1-2-1.1-.9-2.4-.3-6.6 3.7C131.2 45 126 52.4 126 55.2c0 1-1.1 2.3-2.5 3-2.8 1.3-5 6.6-4 10 .6 2.2.5 2.2-.7.3-.8-1.2-1.3-5.1-1.3-10 0-6.6.5-9 2.7-13.9 2.6-5.5 2.8-7.6.8-7.6-1 0-5.5 9.3-6.4 13.5-.4 1.6-1.9 5.8-3.4 9.2-2.3 5.4-3.2 6.4-6.2 7.3-6.8 1.9-12.5.9-13.4-2.3-.3-1.2.2-5 1.1-8.4 1.6-6 1.9-6.3 4.8-6.3 1.8-.1 4.2-1.1 5.9-2.7 2.9-2.4 2.9-2.6 1.1-3.9-2.3-1.7-4-1.8-6.7-.3-1.8 1-2 .9-1.4-.6.6-1.6.4-1.6-1.1-.4-2.1 1.7-1.8 1.1 4.8-8.8 4.1-6 4.6-7.2 3.2-7.7-1-.4-2-.1-2.4.7-.5.8-1.8 2.5-2.9 3.8l-2.1 2.4 1.3-2.5c2.1-4 5.8-8.3 5.8-6.7 0 .7 1.1 1.9 2.5 2.5 2.4 1.1 3.5 3.2 1.6 3.2-.5 0-2.3 2-4 4.5-1.7 2.5-2.5 4.5-1.8 4.5 2.4-.1 9.7-4 10.3-5.5.4-.9 1.2-1.4 2-1.1.7.3 1.8-.1 2.4-.9.8-1 .7-1.6-.6-2.3-1.4-.8-1.3-1.2 1-3.5C118.1 23 119 21 119 19v-3.1l-2.9 2c-1.6 1.2-3.6 2.1-4.5 2.1-.8 0-1.9.8-2.5 1.7-1.4 2.5-6.1.2-6.1-3 0-1.2-.7-3.2-1.5-4.4-1.4-1.9-1.3-2.1 1.6-2.7 1.7-.3 4.2-.3 5.5 0 1.4.4 3.1.1 4-.7 1.5-1.2 1.4-1.4-.7-2-3.4-1-8.9-.9-12.7.2zm-2.3 11.3c1.7 1.1 2.5-2.2 1-4.2-1.2-1.6-1.2-1.6.5-.1 1.6 1.5 1.7 2.1.5 5.3L97.6 25l-1.2-2.9c-1.4-3.4-4.1-4.5-7.7-3.2-3.8 1.5-6 5.4-5.2 9.1.9 4.2 4.3 5.7 8.3 3.7 2.8-1.3 3.1-1.3 3.5.3.5 1.8-2.4 7.2-3.8 7.2-.4 0-1.6-1.3-2.6-2.8l-1.8-2.8-.7 2.9c-.4 1.6-.2 4.2.5 6.1 1.1 2.9.9 3.7-1.3 7.3-2.3 3.5-2.4 4-.8 4.3.9.2-2.3 1.4-7.1 2.7C70 59 66.6 61 68.2 62.5c.2.2 2.6-.2 5.3-1.1 2.7-.8 5.4-1.2 6-1 .5.2.2.5-.7.5-1.3.1-1.8.9-1.8 3 0 3.4-1.6 4-10 4.1-3 .1-7.3.4-9.4.8-3.1.6-3.6.9-2.5 1.9.8.6 2.4 1.3 3.6 1.5 1.6.2 2 .7 1.4 1.7-.7 1-1.8.5-5.1-2.5l-4.2-3.8 5.2-1.2c2.9-.6 5.6-1.8 6.1-2.5.6-1 .9-.8.9.8 0 1.3.6 2.3 1.4 2.3 2.5 0 3.4-8.4 1.6-15.1-.5-1.9-2.3-4.8-3.9-6.3l-2.9-2.8 2-3.4c3.1-5.3 1.7-7-2.7-3.2-1.9 1.8-3.5 3.7-3.5 4.3 0 .7-1.2 1-3.2.7-2.2-.3-3.5 0-4.5 1.4-1.7 2.4-1.7 1 .2-2.6s6.4-6.9 11.9-8.5l4.3-1.3.5 6.7c.3 3.7 1.3 8.3 2.3 10.4 1.4 3.1 2.2 3.7 4.9 3.7C77.6 51 85 43.9 85 37.9 85 32.7 78 27 71.5 27c-3.7 0-3.1 2.7.8 3.5 5.9 1.2 6.7 1.6 8.3 4.6l1.5 3-2.3-1.4c-4-2.5-6.8-3-6.8-1.2 0 1.2-.3 1.3-1.2.5-.7-.6-2.2-1.7-3.2-2.4-1.9-1.3-1.9-1.5-.2-5.9 2-5.2 7.9-11.1 8.4-8.4.2.8 1.6 2 3.3 2.6 2.5.9 2.9.8 2.9-.8 0-1-.7-2.5-1.7-3.2-1.4-1.2-.8-1.5 5.3-2.4l6.9-1 1.2 2.6c.6 1.5 1.6 3 2.2 3.3zm113.5 11c2.7.8 6.6 3.2 9.1 5.5L224 41h-3.9c-2.2 0-4.6.3-5.4.6-1 .4-1.4-.2-1.4-2.2 0-2.3-2.4-5.4-4.2-5.4-.3 0-.4 2.5-.3 5.5.3 4.2-.1 6.1-1.6 8.3-1.2 1.5-2.4 4-2.7 5.5-.7 2.8-2.8 3.6-4.1 1.6-.4-.7.2-1.9 1.4-2.8 2.7-2.1 5.2-9.9 5.2-16.1 0-4.4-.3-5-2.1-5-1.1 0-1.7.5-1.4 1 .3.6-.2 1.3-1.2 1.7-1 .3-3 1.5-4.5 2.5-2.6 1.8-2.6 1.8-2.1-.2.6-2.3.4-2.4-3.1-1-2.1.8-2.6 1.6-2.6 4.5 0 2.2-.4 3.4-1 3-1.4-.8-1.2-4.5.3-7.5 2.3-4.6 12.1-6.3 21.1-3.6zM228.5 47c1.9 1.2 4.4 3.5 5.6 5.2l2.2 3-4.2-2.1c-2.7-1.4-4.1-2.8-4.1-4.1 0-1.1-.2-2-.4-2s-1.1-.3-2-.6c-1.3-.5-1.6.1-1.6 2.9 0 2.9-.3 3.4-1.9 3-1.7-.4-4.8 2.6-7.5 7.4-1.3 2.4 3.1 1.4 6.4-1.3l3.1-2.7-.7 2.9c-.8 3.4-3.3 8.4-3.4 6.7 0-.6-3.4-1.9-7.5-2.8-6.4-1.5-7.3-1.9-6-3.1.7-.8 1.8-1.4 2.4-1.4.6 0 3.8-2.5 7.1-5.5l6-5.5h-3.5c-2.4 0-4.5.9-7.1 3.2-2.5 2.2-3.4 2.6-2.7 1.3 1.3-2.4 5.2-6 7.3-6.8 2.7-1.1 8.8 0 12.5 2.3zM87.4 61.3c-1.3 3.9-2 4.7-4 4.7-1.9 0-2.4.5-2.4 2.5 0 2.2.4 2.5 4 2.5 5.5 0 11.6 2.7 14.1 6.2 1.2 1.6 2 3.1 1.8 3.3-.8.7-14-2.3-15.5-3.6-1.4-1.2-1.4-1.4.2-2.6 1.7-1.2 1.7-1.3-.2-1.4-1-.1-2.4-.1-3.1 0-1.7.2-2.7-4.2-1.9-8.2.4-1.7.7-3.7.8-4.4.1-.7 1.4-1.5 3-1.8 1.5-.4 3.1-1.1 3.4-1.6 1.4-2.3 1.3.1-.2 4.4zM30 82.2c4.5-.3 7-.1 7 .6 0 1.7-7.3 7-15.4 11.1-7.2 3.8-7.4 3.8-8 1.7-1.1-4-.6-6 2.2-8.6l2.7-2.5 2 4.2c1.4 3 2.4 4 3.3 3.4 1-.6.9-1.8-.8-6-2.1-5.5-2.6-7.7-1-5 .8 1.3 2.2 1.5 8 1.1zm77.9 119.4c2.8.6 3.3 1.2 5.2 7.8 2.2 7.5 4.3 11.6 9.2 17.9 1.6 2.1 2.8 3.9 2.6 4-.2.1-1.8 1.2-3.6 2.4-1.7 1.3-3.6 2.4-4.1 2.5-1 .3-6.5-6.4-12-14.4-2.8-4-2.9-4.5-1.1-4.1 2.6.7 6.9-3.2 6.9-6.3 0-3-5.4-7.4-9.1-7.4-6.5 0-8.2 2.9-5.5 9.3l1.3 3.2-5.3-.9c-2.9-.6-4.9-1.3-4.3-1.7.6-.3.8-2 .4-4.1-.5-2.5-.2-3.8 1-4.8 1.3-1.1 8-2.9 14.6-3.9.4-.1 2.1.2 3.8.5z"/><path d="M158.2 14.7c-1 .4-1 .8-.1 1.9.9 1.1.8 1.4-.8 1.4-1 0-2.4.5-3 1.1-.6.6-2.6 1.4-4.5 1.8l-3.3.8 3.8 1.9c3.6 1.7 4.1 1.7 8.1.3l4.2-1.5 2.8 3.8 2.7 3.8h-3.9c-2.2 0-4.5.6-5.1 1.3-1.6 2 6.1 5 9.4 3.7 1.2-.5 2.6-.6 2.9-.3 1.5 1.5.4-5.5-1.2-7.5-1.8-2.3-1.8-2.4 1.2-5.5 2.6-2.7 3.7-3.1 6.7-2.9 2 .2 3.9 0 4.2-.5.4-.5.1-1-.6-1.1-.7-.1-2.9-.5-5-.8-3.3-.5-4.3-.2-6.7 2.1-1.6 1.6-2.7 3.3-2.3 3.9.3.6-1.4-1-3.8-3.6-2.4-2.5-5-4.4-5.7-4.1zM118.5 28.4c-3.5 5.1-6.4 8.4-7.4 8.3-.9 0-2.9.8-4.5 1.8l-2.9 1.9 2.4.7c2.9.7 2.7 1.8-1.3 7.6-2.5 3.7-2.8 4.7-1.7 5.4 1 .7.6.8-1.1.5-6-1.2-7.5-1.1-7.8.6-.3 1.4.3 1.8 2.8 1.8h3.1L98 59.2c-3.2 3.5-2.6 4.6 2.1 3.8 5.5-1 7.8-3.3 6.1-6.1-1.1-1.7-1-2.5.4-4.7 1.7-2.5 1.7-2.6 2.5-.5 2 5.4 4.8 1.5 3.5-4.8-.8-4.3 8.9-19 13.9-20.8l3.5-1.2-2.7-2.5c-1.4-1.3-2.7-2.4-2.8-2.4-.1 0-2.8 3.8-6 8.4zM136.4 46.3c-.3.9-.3 2 0 2.5s-.3 1.7-1.4 2.7c-1.1 1-2 2.2-2 2.7 0 1.1 3.8 1 4.5-.2 1-1.6 2.3-1.2 3 .9.4 1.3-.1 2.7-1.4 4-1.2 1.2-2.1 3.3-2.1 4.8v2.7l1.6-2.2c.8-1.2 1.9-2.2 2.5-2.2 1.7 0 .9 2.6-1.6 5-2.2 2.1-2.5 3.2-2.5 9.3v7l2.4-2.2c3.9-3.6 5.6-8.3 5.6-15V60h3.2c3 0 3.1 0 1.3-2-1-1.1-2.5-2.2-3.4-2.5-.9-.3-2.5-2.1-3.5-4s-2.7-4.2-3.7-5.1c-1.7-1.5-1.9-1.5-2.5-.1zM21.5 101.2c-2.2 1.6-5.2 4.1-6.7 5.6l-2.8 2.6v-3.5c0-1.9-.4-4-.9-4.7-1.5-2.4-3.1 4.2-2 8 1.1 4.2 4.5 9.8 5.9 9.8.6 0 .4 1-.4 2.2-2.5 4-2.4 10.8.2 10.8 2.8 0 6.2-2.8 5.5-4.6-.4-1.1-.9-1.2-1.6-.5-2.7 2.7-3.7-.2-1.2-3.5.8-1 1.4-1.5 1.3-.9-.1.5 1.2 3.2 3 5.9 3.9 6.1 4.8 11.7 2.8 17.3-1.2 3.4-1.2 4.4-.2 5.3 1.1.8 1.7.2 3-3 2.4-6.1 2-11.9-1.2-18.2-2-4-2.5-6-1.8-7.1 1.1-1.7-2.5-10.7-5.1-12.8-2.7-2.3-2.4 1.9.6 7.5 2.4 4.4 2.7 5.4 1.2 4.4-1-.6-1.8-1.8-1.7-2.7 0-.9-.6-1.6-1.4-1.6-.8 0-2.3-1.4-3.2-3-2-3.5-2.2-4.6-.8-4.3 1.4.4 12.9-8.4 12.9-9.9.2-2.3-1.4-2-5.4.9zM253.5 168c-.5.8-.8 2.3-.6 3.4.1 1-.1 1.6-.6 1.3-.5-.3-2.4.3-4.2 1.4-2.6 1.6-3.2 2.5-2.7 4.2.3 1.2.1 2.9-.4 3.7-.7 1.1-1 .8-1-1.5 0-3.4-1.5-6.3-2.6-5.2-.4.4-.7 2.3-.6 4.3.3 7.5 6.3 11.7 7.6 5.3.3-1.7.6-4.2.6-5.5 0-1.4.8-2.5 2-2.9 1.1-.3 2-1.2 2.1-1.8.2-2.6 1.7 4.1 1.8 8 .1 3-.5 4.9-2.1 6.7-2.7 3-14.3 7-25.8 8.8-7.6 1.2-10 2.9-5.1 3.6 3.3.5 17.2-2.5 25.3-5.5 9.4-3.5 11.1-6.1 10.5-15.8-.6-8.2-2.8-14.8-4.2-12.5zM13.2 181.3c.5 8.4 2.4 11.1 10.6 15.5 6.6 3.5 15.4 5.7 26.9 6.8 6.1.6 7.3.4 7.3-.8 0-1.1-2.8-1.8-11.3-3-11.3-1.6-22.2-5.2-26.1-8.6-2.4-2.2-4.6-7.4-4.6-11 0-1.6-.7-3.6-1.6-4.3-1.5-1.2-1.6-.8-1.2 5.4zM125.3 191.2c-6.8 7.5-8 14.9-3.8 23.4 3.2 6.4 8.1 11.2 9.6 9.7.9-.9.1-2.4-3-5.9-6.8-7.8-7.8-16.1-2.6-22.1 2.3-2.7 2.4-2.8 4.2-.9 1 1 1.2 1.6.5 1.2-1.4-.8-5.1 6.4-5.2 10.1 0 5.3 4.8 10.1 9 8.8 1-.3 2.5-2.1 3.4-4 1.9-3.9 1.1-8.6-2.2-14-1.8-2.9-1.8-3.1-.2-3.2 2.5-.2 6 6.6 6 11.8 0 5.4-2.9 11.5-8.6 17.8-4.2 4.6-4.6 6.9-1 5.5 2.1-.8 9.2-10.2 11.1-14.7 3.1-7.6 1.5-16.4-4.5-23.7l-2-2.5-1.9 2.2c-1.8 2.2-1.9 2.2-3.6.3-2.3-2.5-2.7-2.5-5.2.2zM220.2 205.5c-3.5.8-7.2 1.7-8.4 2.1-1.7.5-2 .3-1.5-1 .5-1.1.1-1.6-1.3-1.6-2.3 0-2.7 3.5-.9 10.4 1.6 6.4 4.8 9.9 9.2 10 2 .1 3.7.2 3.7.3 0 3.6-9.4 10.3-14.7 10.3-1.6 0-2.3.6-2.3 1.9 0 1.7.4 1.8 4.2.9 5.7-1.2 11.6-4.7 14.1-8 2.7-3.6 3.4-12.8 1.4-18.4l-1.4-4.2 4.5-.6c6.3-.9 11-.7 11.6.3.9 1.3-5 8.8-8.9 11.3-4 2.6-5.1 6.7-1.2 4.7 4.6-2.5 7.9-5.5 10.8-9.8 3.2-4.9 3.7-8.6 1.3-9.5-2.6-1-13.5-.5-20.2.9zM176.3 228.2c-8.9 11.8-10.5 14.3-9.6 15.2.5.4-1.7-.2-4.7-1.4-7.1-2.7-7.2-2.7-7.7-1.2-.7 1.8 11.8 7.4 13.4 6 .7-.5 1.1-1.3 1-1.6-.3-1 7.8-12.6 9.9-14.2 1.8-1.4 1.8-1.4.2.6-1.1 1.2-1.8 3.7-1.8 6.3 0 3.1-.5 4.3-1.7 4.8-1 .3-3.5 2-5.6 3.6-3 2.3-3.7 3.5-3.5 5.6.2 2 .9 2.7 3.1 2.9 1.9.2 2.7-.1 2.7-1.2 0-.8-.6-1.6-1.2-1.9-1.6-.5 1.6-4.4 4.3-5.2 1.1-.4 1.9-1.4 1.9-2.3 0-1.2.4-.9 1.3.8 2 4 10.7 3.6 10.7-.5 0-2.2-4.6-4.8-7-4-2 .6-2.1.4-1.9-5.7.1-5.1.6-6.9 2.8-9.8 4.2-5.5 4.4-6 2.3-6-1.3 0-4.4 3.2-8.9 9.2zM68 222.5c-.8 1-1.1 3.7-.8 7.9l.4 6.5-3.1-.6c-6-1-9.2-2.4-12.1-5.1-1.6-1.6-3.7-3.1-4.6-3.5-4.9-1.8 1.7 6.5 7.5 9.5 2.2 1.1 6.7 2.3 9.9 2.5 3.1.3 5.5.9 5.3 1.3-.9 1.5 5.6 8.9 10.1 11.6 3.7 2.2 6.3 2.8 12.4 3.2 9.1.5 12.6-.7 11-3.8-1.3-2.3-4-2.7-4-.5 0 1.1-1.2 1.5-5.2 1.5-7 0-14.4-3.5-19.2-9.1l-3.7-4.4 3.3-.8c3.7-.9 7.8-4.9 7.8-7.6 0-4-7.2-10.1-11.8-10.1-1.1 0-2.5.7-3.2 1.5z"/><path d="M193.1 222.4c-7.7 4.3-5.9 16.2 2.7 16.8 1.7.1 3.2.4 3.2.6 0 .2-.9 1.7-2 3.2-2.3 3.2-10.5 7.5-16.2 8.6-2.4.4-3.8 1.2-3.8 2.1 0 3.4 14.9-1.3 20.4-6.5 3.9-3.7 5.8-8.5 5.7-15.2 0-7.9-1.4-11-4.8-11-1.6.1-3.9.7-5.2 1.4zM117.5 241c-.4.6.3 2.2 1.6 3.6l2.3 2.4-2.4 1.8c-6.5 4.7-14.4 8.2-18.9 8.2-4.3.1-4.5.2-2.7 1.5 1.1.8 3.4 1.5 5.1 1.5 3.6 0 14-4.9 17.8-8.4l2.5-2.3 4.3 4.3c3.3 3.4 4.6 4.1 5.6 3.2 1.1-.9-.1-2.6-5.9-8.7-8.2-8.5-8.3-8.6-9.3-7.1zM158.4 252.3c-7 9-12.3 11.4-18.4 8.2-2-1-3.1-1.2-3.6-.4-1.2 2 2.3 4.2 7.5 4.7 5.3.5 9.6-1.4 13.6-5.8 1.3-1.4 2.1-1.7 2.6-.9.4.7 3 1.4 5.8 1.7 8.4.8 12.4-3.6 9-9.9-.8-1.6-1.3-1.8-2.4-.9-1.1.9-1.2 1.6-.2 3.1.9 1.5.8 2.2-.5 3.5-1.3 1.3-2.6 1.5-6.7.9l-5.1-.7 3-3.6c2.2-2.6 2.6-3.8 1.7-4.4-1.8-1.1-1.9-1.1-6.3 4.5z"/></g></svg><svg viewBox="0 0 256 256" id="logo1" xmlns="http://www.w3.org/2000/svg"><g fill="#dfdfdf" stroke-miterlimit="10" font-family="none" font-weight="none" font-size="none" text-anchor="none" style="mix-blend-mode:normal"><path d="M131.775 6.24c-1.228.567-3.117 1.606-3.967 2.456-.945.85-1.7 1.133-1.7.567 0-1.323-4.346-3.118-7.652-3.118-4.535 0-8.974 2.55-14.17 8.313-3.212 3.59-4.44 5.48-3.779 6.14.662.662 2.834-.755 6.99-4.817 3.307-3.118 7.275-6.046 8.692-6.424 3.117-.756 7.273.472 7.84 2.456.378 1.134.095 1.04-1.417-.283-1.89-1.7-5.479-2.173-6.329-.85-.283.472.378 1.417 1.512 2.172 1.039.756 2.739 2.173 3.684 3.118 1.795 1.889 1.889 1.889 4.534-1.323 2.456-3.023 2.645-3.023 2.456-.944-.094 1.228-.945 2.456-1.89 2.834-2.55.85 0 2.267 2.835 1.51 1.228-.282 2.55-.094 2.928.568.378.567.284.755-.283.472-1.04-.661-8.408 5.196-12.092 9.541-3.684 4.345-1.039 4.723 3.59.472 9.919-8.88 10.108-8.974 10.674-7.179.284.945.85 2.55 1.323 3.59l.85 1.889v-1.89c.095-1.605.378-1.51 2.362.945 1.89 2.267 2.55 2.55 3.495 1.7.945-.944.378-2.078-2.645-5.762-2.834-3.4-3.495-4.534-2.267-4.628.85-.095 5.1-1.417 9.54-3.023 4.44-1.606 9.542-2.929 11.337-2.929 3.211 0 3.211 0 1.133 1.512-1.133.755-2.078 2.456-2.078 3.778 0 2.645 1.7 3.023 2.55.567.378-.85 1.04-1.89 1.606-2.267 2.645-1.795 15.682 0 21.255 3.023l2.173 1.133-2.079 1.04c-1.228.66-2.55 2.078-2.928 3.306-.756 2.078-.661 2.172 2.74 1.511 1.889-.283 3.967-1.228 4.534-1.89.944-1.133 1.228-1.133 2.267.095 1.228 1.512 3.779 1.984 3.779.662 0-.378-1.606-2.268-3.496-4.157-5.195-5.006-11.619-7.651-20.31-8.124-4.062-.189-7.084-.756-6.801-1.228.85-1.417-4.534-2.078-9.824-1.133-4.63.85-5.385.755-6.99-.85-3.402-3.401-9.07-4.44-13.982-2.551z"/><path d="M94.178 9.074c-1.7.567-3.306 1.417-3.59 2.078-.283.756-1.794 1.04-4.061.85-5.196-.472-13.131 1.323-17.193 4.062-2.078 1.323-4.44 4.157-5.951 7.18-1.323 2.739-2.456 4.44-2.456 3.778 0-.85-.85-1.039-3.023-.567-12.753 2.74-20.405 13.981-17.76 25.884 1.417 6.518 2.456 8.596 4.251 8.596 1.7 0 1.7.189 0-4.723-.755-2.173-1.417-4.157-1.417-4.346 0-.189 1.512-.377 3.307-.377 2.267 0 4.156-.85 6.14-2.645l2.928-2.551h-6.14c-5.385.094-6.235-.189-6.235-1.606s.85-1.7 4.724-1.7c4.817 0 10.39 2.078 10.39 3.778 0 .567-.377.945-.755.945-.472 0-3.306 2.362-6.235 5.196-3.967 3.873-5.006 5.384-3.967 5.762 2.078.85 7.557-1.228 10.485-3.873 3.212-3.023 3.496-2.929 3.118.661-.284 2.929-.473 3.117-7.274 4.629-12.092 2.74-13.414 2.834-13.225 1.039.283-3.212-.095-4.723-1.984-6.896l-1.89-2.267.567 3.306c.284 1.795.756 4.346.945 5.574.472 2.172.378 2.172-4.723 1.794-2.929-.283-5.574-.66-5.857-1.039-.756-.66.189-4.345 1.512-6.329.85-1.228 1.039-1.228 1.889 0 .567.756 1.228 2.55 1.511 3.968.378 1.417.945 2.361 1.417 2.078 1.417-.85.945-7.18-.661-8.974-1.323-1.512-1.134-1.89 2.362-4.724 3.59-2.833 5.006-5.573 3.117-5.573-.472 0-2.55 1.228-4.629 2.74-4.44 3.211-9.352 10.58-10.202 15.303-.661 3.4-.567 3.495 2.928 4.629 2.268.755 6.613 1.039 12.375.755 4.912-.283 8.502-.189 7.84.19-.755.472-.566 1.038.473 1.889.85.755 1.228 1.889.85 3.022-.283 1.04.19 2.834 1.04 4.251 1.416 2.173 1.794 2.268 2.55.85.472-.85.567-1.983.189-2.644-.472-.756-.189-.85 1.134-.284 4.156 1.7 5.856 1.606 6.99-.472.567-1.134.85-2.645.567-3.4-.378-.851.094-1.323 1.322-1.323 1.795 0 1.795.189.567 3.306-.756 1.795-1.04 3.306-.567 3.306 2.078 0 3.968-1.417 5.29-3.873.756-1.606 2.173-2.74 3.212-2.74.945 0 1.984-.755 2.173-1.7.283-.85.472 0 .567 1.89 0 1.889.283 4.062.66 4.817.379 1.04-1.038 1.512-6.706 1.984-3.968.378-9.73 1.417-12.847 2.456-6.707 2.078-25.506 13.225-24.656 14.642.284.473-.189.378-1.039-.378-2.078-1.7-2.078-1.7 1.04-3.306 4.156-2.173 9.73-8.313 9.446-10.391-.378-2.55-6.33-3.779-12.092-2.55-2.267.472-4.345.755-4.534.566-.472-.472 10.863-3.873 15.492-4.629l3.968-.66-.473 4.533c-.283 2.457-.944 5.29-1.417 6.14-.472.945-.472 1.701 0 1.701 2.929 0 8.408-12.564 6.518-14.925-1.133-1.417-4.723-1.04-14.358 1.417-9.825 2.456-14.642 4.912-14.642 7.462 0 1.228-.473 2.267-1.04 2.267-.566 0-2.267.945-3.872 1.984-2.74 1.984-2.834 2.362-2.362 7.368.189 2.929 1.133 6.896 1.984 8.88 1.322 3.023 1.889 3.495 2.928 2.55 1.04-.85 1.134-1.605.472-2.833-1.133-2.173-1.228-3.118-.189-2.456.473.283 3.023-.567 5.763-1.795 2.645-1.323 4.629-1.89 4.345-1.417-.283.567.095 1.89.85 3.023 2.362 3.4 1.89 7.84-1.228 11.43-3.59 4.062-2.645 6.613 1.228 3.306 3.307-2.834 5.29-8.596 4.346-12.564-.567-2.645-.378-3.306 1.322-4.062a322.91 322.91 0 0 0 6.99-3.967c4.818-2.834 4.913-2.834 4.44-.756-.188 1.228-.66 3.306-.85 4.723-.283 1.417-.66 3.023-1.039 3.59-.85 1.417.662 1.134 2.929-.472 2.456-1.7 5.1-6.99 5.1-10.297 0-1.984.662-2.55 3.59-3.306 4.818-1.417 5.668-1.323 3.212.472-1.322.945-2.078 2.362-2.078 4.251 0 4.062 1.511 3.4 3.4-1.511 1.512-3.968 1.796-4.251 5.007-4.251h3.401l-3.117 2.456c-3.968 3.212-5.29 5.573-4.062 7.746.567.945 1.039 1.134 1.039.378 0-.661 1.417-1.795 3.212-2.55 2.361-1.04 3.4-2.173 3.873-4.252.661-3.023 2.078-3.4 7.085-1.983 2.267.66 2.267.66-.662 1.322-3.117.661-4.345 2.55-1.7 2.55.945 0 1.417.945 1.417 2.551l.095 2.645 3.495-3.873 3.59-3.967 5.1 1.983c7.558 2.74 11.903 5.763 14.832 10.297 2.361 3.495 2.645 4.912 2.928 13.13.472 12.092-1.134 24.845-3.4 27.773-.945 1.228-2.93 5.385-4.346 9.258-2.645 7.368-3.684 8.407-15.681 15.587-9.258 5.573-8.124 5.384-22.766 5.384-15.776 0-17.476.661-18.043 6.896l-.284 3.4-5.195-4.25c-5.857-4.723-8.502-6.14-8.597-4.345 0 .66-.377.188-.85-.945-.472-1.228-1.606-2.173-2.456-2.173-2.928 0-7.84-3.873-10.202-8.03-1.89-3.495-1.984-4.061-.661-3.4 2.55 1.417 4.062 3.59 3.684 5.384-.378 2.173 1.984 2.834 2.645.662.283-.945 1.417-3.968 2.456-6.613 1.134-2.928 1.606-5.668 1.228-6.612-.567-1.323-1.323-.473-3.4 3.967-1.512 3.117-2.74 5.101-2.74 4.44 0-.756-1.984-3.873-4.44-6.99-4.912-6.519-5.574-10.014-2.362-13.32l2.078-1.984 2.74 3.212c2.267 2.74 2.928 3.023 3.4 1.795.379-1.04-1.322-4.345-4.723-9.447-4.817-6.99-5.384-8.218-4.912-11.524.284-1.984 1.134-4.346 1.984-5.29 1.606-1.795 2.078-4.818.661-4.818-1.511 0-4.723 4.723-5.668 8.218-1.133 3.873 0 7.558 3.873 13.225 1.512 2.268 2.173 3.874 1.512 3.59-1.512-.567-2.74.284-4.818 3.306-2.361 3.401-1.984 6.613 1.512 11.809 2.55 3.778 3.117 5.384 2.74 8.124-.284 2.833.188 4.062 2.739 6.895 3.495 4.062 8.313 6.896 9.257 5.48.284-.567.567 1.889.567 5.29 0 5.667.189 6.329 1.984 6.612 2.645.378 5.573-5.101 3.873-7.368-.945-1.228-.85-1.228.756 0 1.039.85 3.684 3.117 5.95 5.006 4.44 3.873 7.841 4.44 11.431 1.984 1.7-1.228 2.078-2.173 1.7-4.156l-.566-2.55 17.76-.568c9.729-.377 18.514-.944 19.459-1.228 3.495-1.322.283 1.7-6.14 5.857-3.59 2.267-7.369 5.29-8.408 6.613-2.55 3.212-2.55 6.045-.094 6.045 1.039 0 1.89-.566 1.89-1.228 0-1.417 4.25-5.573 7.273-7.179 2.456-1.228 3.873.189 2.173 2.267-.945 1.134-.85 1.512.377 1.984 1.984.756 4.157-1.04 4.535-3.684.189-1.512 2.361-3.117 8.218-6.14 4.346-2.173 8.03-3.873 8.219-3.684.189.094-.378 2.833-1.134 5.95l-1.417 5.669-14.359 3.495c-7.935 1.984-16.625 3.495-19.27 3.495-3.873 0-5.007.378-5.007 1.417 0 1.512 1.228 1.795 7.085 1.512 2.361-.095 3.306.094 2.645.66-.945.568-.472 1.796 1.795 5.007 1.983 2.74 2.361 3.59 1.039 2.457-2.267-1.984-17.57-5.763-20.783-5.102-1.416.284-1.889 0-1.51-.944.282-.756-.19-1.228-1.418-1.228-3.4 0-7.746 15.114-4.629 16.342.662.284.662.567.095.567-2.362.189-8.597-5.573-11.147-10.297l-2.74-5.006 7.18.66c4.912.473 7.274.379 7.746-.377 1.039-1.7.189-1.984-8.88-2.55-8.502-.567-8.596-.567-8.596 1.605 0 3.684 3.59 10.014 8.03 13.981 9.824 9.163 21.726 6.802 23.616-4.534.755-4.346 1.039-4.44 8.88-1.984 3.117.945 5.856 1.606 6.045 1.323.283-.19 2.55 2.172 5.29 5.195 4.44 5.196 4.818 6.14 5.48 11.997.944 8.408 3.116 9.541 3.21 1.7.095-4.156.284-4.912.757-3.022.472 1.322 2.267 4.25 3.967 6.612 1.795 2.362 4.723 6.424 6.518 9.163 3.118 4.63 5.29 5.857 5.101 2.929-.094-1.606-10.296-16.154-14.358-20.5-1.7-1.794-3.118-4.533-3.496-6.706l-.566-3.684 3.778-.378c3.684-.284 4.062-.095 6.424 3.495 4.629 6.99 10.958 14.642 11.714 14.075.472-.283.85-.283.85 0 0 .284-1.984 1.606-4.346 3.023-3.117 1.795-3.967 2.834-3.211 3.59 1.228 1.228 6.612-1.417 13.791-6.896 4.724-3.59 4.818-3.59 6.99-1.795l2.174 1.795-3.496 3.59c-3.306 3.306-3.59 4.817-.944 4.817.66 0 3.306-2.645 6.045-5.762 3.401-4.156 4.535-6.14 3.78-6.896-.662-.661-1.418-.472-2.457.567-1.417 1.322-1.795 1.228-4.534-1.984-16.248-18.61-16.91-32.496-1.795-41.376l4.156-2.456 3.968 2.834c2.172 1.606 5.29 4.63 6.801 6.896 2.456 3.401 2.834 4.723 2.834 10.202 0 5.29-.567 7.463-3.306 12.942-1.7 3.59-3.212 6.99-3.212 7.557-.283 3.873 6.99-4.534 13.698-15.87 2.55-4.345 3.967-5.668 7.273-6.99 2.173-.85 4.346-1.134 4.724-.756.377.378.094.945-.662 1.228-2.55.85-5.762 4.818-5.762 7.085 0 2.362 4.44 7.274 6.707 7.368 1.04 0 1.04.19-.189.662-2.173.944-19.27 21.915-19.176 23.427.094.756-1.984-.378-4.535-2.456-5.006-3.968-5.95-4.346-6.801-2.929-.661.945 6.235 6.99 14.264 12.659 3.873 2.645 5.101 3.117 5.857 2.172.756-.944 0-1.983-3.306-4.25l-4.251-3.118 2.172-2.645c1.228-1.511 5.763-7.18 10.203-12.658 6.707-8.219 8.502-9.92 10.674-9.92 1.512-.094 3.59-.566 4.629-1.133 1.89-1.039 1.984-.85 1.322 2.079l-.566 3.211 2.361-2.834c1.228-1.605 2.362-3.684 2.362-4.723.094-3.306 3.684-10.108 5.668-10.58 2.645-.756 2.456-4.062-.19-4.062-1.227 0-6.423-1.511-11.618-3.306-5.196-1.795-10.202-3.306-11.053-3.306-2.834 0-5.479-3.496-5.479-7.085 0-1.795.378-3.307.85-3.307 1.606 0 17.571 5.857 21.822 8.03 8.124 4.156 10.297 9.352 6.707 16.342-1.417 2.834-1.7 3.968-.85 4.062.661 0-.19.473-1.795.945-1.7.472-3.117 1.511-3.117 2.267 0 1.89-.095 1.89 11.146-1.133 7.652-2.079 9.636-2.929 9.636-4.251 0-.945-.095-1.7-.189-1.7-.189 0-3.023.85-6.424 1.889-3.4 1.039-6.423 1.889-6.707 1.889-.378 0 .378-1.984 1.606-4.44 2.645-5.196 2.834-9.446.661-13.508-1.7-2.929-1.7-2.929.662-4.913 2.078-1.7 3.212-1.889 8.974-1.417 5.007.473 6.896 1.04 8.03 2.456 4.156 5.48 19.837 6.613 19.837 1.417 0-.944-.567-1.322-1.417-.944-3.023 1.133-1.228-1.228 2.834-3.873 2.362-1.512 4.251-3.401 4.251-4.346 0-2.078-.567-1.983-3.59.19-3.778 2.644-10.296 5.762-11.997 5.762-.85 0-2.267-.85-3.117-1.89-1.984-2.361-12.375-4.723-21.255-4.723-5.384 0-7.368-.472-13.13-3.4-12.28-6.235-13.698-7.369-16.91-14.36-4.062-8.879-7.651-25.883-8.124-38.447l-.472-10.485 8.313-6.518c9.635-7.652 11.052-8.502 15.303-9.258 4.157-.85 4.062 1.323-.283 5.101-1.795 1.606-3.306 3.307-3.306 3.779 0 1.511 3.684.945 5.479-.85 1.511-1.606 1.795-1.606 5.762.944 2.362 1.417 5.196 2.645 6.424 2.645 2.078 0 2.078-.189-1.228-4.534-1.89-2.456-4.44-4.818-5.668-5.196-3.307-1.133-2.834-2.267 1.322-2.833 1.89-.378 4.912-.85 6.518-1.229 2.74-.566 3.212-.283 4.062 1.89.662 1.89 1.512 2.456 3.684 2.456 1.417 0 3.212-.567 3.779-1.323.945-1.039.378-1.606-2.928-2.74l-4.062-1.322 4.912-.66c5.479-.851 6.896-.379 6.896 2.266 0 1.134 1.511 2.834 3.684 4.346 2.078 1.322 3.967 3.117 4.156 3.967.284.945.473-.094.567-2.078.095-2.74-.472-4.44-1.984-6.046l-2.172-2.267 5.195 2.078c2.834 1.134 6.99 3.023 9.163 4.346 3.684 2.172 3.968 2.456 3.023 4.817-1.417 3.779-.189 7.18 3.968 11.147 3.212 3.307 3.59 4.062 3.117 6.802-.756 3.967 1.417 7.557 5.762 9.352 1.795.755 3.685 1.322 4.251 1.322 1.228 0 1.228-3.873 0-7.085-1.039-2.74-2.834-2.361-2.834.567 0 2.267-1.228 2.362-2.928.19-.756-.851-.85-1.323-.283-.946 1.606.945 8.218-6.707 7.557-8.596-.284-.945.567-.378 1.89 1.134 2.172 2.456 2.36 3.212 1.794 7.557a149.124 149.124 0 0 1-1.417 8.03c-.472 1.794-.661 3.59-.378 4.061.661.945.756.945-4.534-.66-3.968-1.134-4.629-1.134-5.951.094-1.795 1.794-1.795 6.045-.095 8.502 1.89 2.456 4.062.566 2.55-2.268-2.361-4.44-.755-5.006 5.952-2.172 2.267 1.039 4.912 2.928 5.762 4.25 1.512 2.268 1.512 2.646-.472 6.802-1.417 2.834-1.795 4.629-1.134 5.29 1.323 1.323 5.007-4.25 5.574-8.785.472-3.306.189-4.062-2.834-6.896-1.89-1.7-3.023-3.495-2.55-3.968 1.133-1.228 2.833-10.202 2.833-14.925 0-3.117-.661-4.912-2.834-7.652-2.928-3.684-3.495-4.723-1.889-3.778.567.377.945-.945.945-3.212 0-2.645-.662-4.534-2.362-6.518-2.456-2.929-9.352-6.33-10.958-5.385-1.606 1.04-.85 2.173 2.173 3.212 4.44 1.606 8.313 5.668 8.313 8.785 0 1.89-.378 2.456-1.417 2.079-1.606-.662-1.984 1.983-.473 2.928.567.378.284 1.606-.944 3.117-2.74 3.684-6.896 8.408-6.14 6.99.377-.66.094-1.983-.567-2.833-1.04-1.323-1.04-1.417.094-.473 1.606 1.512 4.251-.283 2.929-1.983-.567-.662.189-2.929 2.456-6.518 2.456-3.968 3.023-5.857 2.361-6.519-.755-.755-1.606-.377-3.023 1.229-1.039 1.228-1.794 1.7-1.7.944.283-1.606-7.18-7.085-16.248-11.902-3.4-1.89-7.746-4.251-9.824-5.385-4.062-2.267-15.115-2.834-27.867-1.417l-6.99.85 1.51-2.267c4.252-5.762 5.385-8.03 5.102-9.73-.284-1.511.189-1.984 2.361-2.078 2.267-.094 2.834.378 3.307 2.645.566 2.74 2.456 4.912 5.29 5.857 2.361.85 2.172-3.495-.378-5.763-1.417-1.416-1.606-1.983-.567-2.361.756-.284 1.984.756 3.023 2.74 1.89 3.495 3.4 3.872 7.368 1.889 2.362-1.323 2.55-1.323 1.606.378-1.228 2.267-1.228 5.667 0 5.667s3.023-4.534 2.645-6.518c-.189-.755-1.322-1.7-2.645-2.078-2.078-.567-1.89-.661 1.04-.756 4.25-.094 5.95 1.7 5.1 5.48-.567 2.833.756 6.706 2.362 6.706 1.322 0 1.228-7.273-.095-9.635-1.039-1.89-.85-1.89 2.551-1.323 2.078.378 6.235 1.417 9.352 2.268l5.668 1.605-7.085.473c-6.33.378-7.085.661-7.368 2.456-.378 2.645 3.59 7.274 8.124 9.446 1.89 1.04 3.495 2.362 3.495 3.118 0 2.928 2.078 1.7 5.573-3.401 2.834-4.156 3.401-5.384 2.362-6.046-.85-.567-.945-.85-.189-.85.567 0 2.362 1.04 3.968 2.362 2.172 1.889 2.928 3.4 3.117 6.329.378 4.629 2.267 5.762 3.117 1.89.85-3.874-1.606-9.353-5.195-11.337-1.512-.85-2.645-2.172-2.362-2.74 1.04-2.739-14.83-7.84-30.984-9.824-6.613-.85-8.597-.85-9.164.095-.472.756-1.039.189-1.7-1.795-1.322-3.873-4.44-4.156-3.59-.378.284 1.512.284 2.078 0 1.417-.377-.755-2.833-1.133-6.801-1.228-3.495-.094-5.573-.283-4.629-.567 1.89-.472 1.984-1.889.661-5.573-.944-2.267-.85-2.456.473-1.323.85.756 6.801 2.645 13.225 4.251 6.518 1.7 11.62 3.212 11.43 3.401-.283.19 3.684.472 8.596.567 6.519.189 9.541.661 10.675 1.7 2.078 1.89 6.613 1.89 6.613-.094 0-.756-.378-1.134-.945-.85-1.7 1.039-3.023-.567-1.417-1.795 3.306-2.456-8.785-20.405-15.681-23.239-1.512-.66-2.456-1.605-2.173-2.361.283-.661-1.04-2.929-2.928-5.101-4.913-5.385-12.092-7.935-20.783-7.369-7.84.473-11.43 1.984-13.32 5.48-2.833 5.573-.944 12.185 4.535 16.058 1.7 1.228 3.873 3.212 4.818 4.346.944 1.228 2.74 2.173 3.967 2.173 1.134 0 2.362.66 2.74 1.416.661 1.7.283 1.7-5.385 0-2.55-.755-4.912-1.228-5.384-1.133-.85.189-5.574-5.48-8.597-10.297-1.511-2.456-1.7-3.59-.944-5.006 1.417-2.551 1.322-5.29-.284-6.613-1.133-.945-1.417-.661-1.983 1.606-.85 4.156-3.118 3.4-3.496-1.323-.094-2.172.095-3.778.473-3.495.378.19 1.984.85 3.59 1.228 2.456.756 3.306.473 5.195-1.417 2.74-2.74 2.928-6.234.567-8.313-3.495-3.211-11.62-1.039-10.202 2.645.566 1.512.755 1.606 2.267.095 3.117-2.74 7.085-1.228 6.14 2.361-.756 2.74-4.44 2.173-8.313-1.133-2.55-2.267-3.684-2.74-4.44-1.984-.85.85-.661 1.512.567 2.834 1.134 1.323 1.7 3.968 1.89 9.73.472 9.446 1.983 15.02 4.061 15.02 1.04 0 1.323-.567.85-2.173-.283-1.133-.755-3.59-.944-5.384-.19-1.795-.095-2.55.094-1.512.284.945 2.267 4.535 4.44 8.03 5.574 8.785 5.48 8.596 4.346 8.596-.567 0-1.512-1.322-2.079-2.834-.944-2.928-1.7-3.306-9.635-4.156-4.062-.473-4.44-.378-3.873 1.133.472 1.228.378 1.323-.567.473-.945-.945-.85-1.512.283-2.834 1.512-1.7 1.984-3.779 1.795-7.274-.094-1.7-.378-1.606-2.928.85-2.74 2.645-2.834 2.645-4.157.85-1.228-1.606-1.133-1.89 1.228-2.456 3.118-.85 5.385-3.117 3.968-3.967-.472-.378-2.928-.662-5.479-.756-3.684-.189-4.912-.756-6.99-3.117-1.795-1.984-2.929-2.551-3.59-1.89-.756.756-.189 1.984 1.7 4.251 5.29 6.518 15.398 24.089 11.714 20.405-.472-.378-.756-1.228-.756-1.795 0-.661-.755-1.228-1.606-1.417-2.456-.473-2.267 4.156.095 5.479 1.89.944 8.596 1.322 8.596.472 0-.283-.661-1.606-1.511-2.834-1.512-2.361-1.512-2.361 1.417-2.361 2.361 0 3.211.566 3.967 2.55 2.267 5.951-2.267 9.635-8.974 7.368-6.33-2.172-10.108-6.896-11.336-14.17-.567-3.211-.567-3.59.567-2.172 1.417 1.795 4.062 2.645 4.156 1.228.284-2.362-2.078-5.385-4.534-5.857-1.795-.378-3.306-1.7-4.912-4.44-1.228-2.078-4.629-6.423-7.463-9.54-4.156-4.44-5.479-5.385-6.423-4.535-.945.945.094 2.456 4.817 7.463 9.352 10.013 12.942 20.215 10.486 29.473-1.134 3.873-2.267 4.912-3.4 3.023-1.229-1.984-2.174.189-1.323 3.023.755 2.739.472 3.495-2.74 7.368-1.984 2.361-5.1 5.1-6.99 6.046l-3.307 1.889-3.495-2.173c-1.889-1.228-4.912-4.44-6.707-7.274-3.778-5.856-3.873-6.234-1.7-5.384 1.228.472 1.417.189.945-1.04-.662-1.794.755-5.29 2.172-5.29.473 0 .567 2.268.284 5.102-.473 4.912-.378 5.195 3.306 9.163l3.779 4.062 1.133-3.968c1.228-4.723.756-6.612-2.362-10.013-3.306-3.495-2.928-4.912.567-2.456 3.307 2.362 4.157 2.078 3.307-1.322-.378-1.512-1.984-3.212-4.157-4.346-1.89-1.039-2.55-1.7-1.417-1.417 2.173.567 5.951-.85 5.951-2.361 0-.473-1.511-.945-3.306-1.134l-3.306-.283 1.606-3.023c.944-1.7 3.023-4.535 4.723-6.33l3.023-3.211 5.195 5.006c2.929 2.74 5.574 4.63 5.857 4.157 1.04-1.7-.755-6.518-3.495-9.447-1.511-1.606-2.55-3.306-2.267-3.684.283-.378-.189-1.228-.945-1.89-1.039-.85-2.267-.283-6.234 3.496-5.385 5.007-10.297 11.997-10.297 14.642 0 .945-1.04 2.173-2.362 2.834-2.645 1.228-4.723 6.235-3.778 9.447.566 2.078.472 2.078-.662.283-.755-1.134-1.228-4.818-1.228-9.447 0-6.234.473-8.501 2.55-13.13 2.457-5.196 2.646-7.18.757-7.18-.945 0-5.196 8.786-6.046 12.753-.378 1.512-1.795 5.48-3.212 8.691-2.173 5.101-3.023 6.046-5.857 6.896-6.423 1.795-11.808.85-12.658-2.173-.283-1.133.189-4.723 1.04-7.935 1.51-5.668 1.794-5.951 4.533-5.951 1.7-.095 3.968-1.04 5.574-2.55 2.74-2.268 2.74-2.457 1.039-3.685-2.173-1.606-3.779-1.7-6.33-.283-1.7.945-1.889.85-1.322-.567.567-1.511.378-1.511-1.039-.378-1.984 1.606-1.7 1.04 4.534-8.313 3.874-5.668 4.346-6.801 3.023-7.273-.944-.378-1.889-.095-2.267.66-.472.756-1.7 2.362-2.74 3.59l-1.983 2.268 1.228-2.362c1.984-3.779 5.479-7.84 5.479-6.33 0 .662 1.04 1.796 2.362 2.362 2.267 1.04 3.306 3.023 1.511 3.023-.472 0-2.173 1.89-3.779 4.251-1.605 2.362-2.361 4.251-1.7 4.251 2.267-.094 9.163-3.778 9.73-5.195.378-.85 1.134-1.323 1.89-1.04.66.284 1.7-.094 2.266-.85.756-.944.662-1.511-.566-2.172-1.323-.756-1.228-1.134.944-3.307 1.606-1.606 2.456-3.495 2.456-5.384v-2.929l-2.74 1.89c-1.51 1.133-3.4 1.983-4.25 1.983-.756 0-1.795.756-2.362 1.606-1.322 2.362-5.762.19-5.762-2.834 0-1.133-.661-3.022-1.417-4.156-1.323-1.795-1.228-1.984 1.511-2.55 1.606-.284 3.968-.284 5.196 0 1.322.377 2.928.094 3.779-.662 1.417-1.133 1.322-1.322-.662-1.89-3.211-.944-8.407-.85-11.997.19zm-2.172 10.674c1.605 1.04 2.361-2.078.944-3.967-1.133-1.512-1.133-1.512.473-.095 1.511 1.417 1.605 1.984.472 5.007l-1.228 3.4-1.134-2.739c-1.322-3.212-3.873-4.25-7.274-3.023-3.59 1.417-5.667 5.101-4.912 8.597.85 3.967 4.062 5.384 7.84 3.495 2.646-1.228 2.93-1.228 3.307.283.472 1.7-2.267 6.802-3.59 6.802-.377 0-1.511-1.228-2.456-2.645l-1.7-2.645-.661 2.74c-.378 1.51-.19 3.967.472 5.762 1.04 2.739.85 3.495-1.228 6.895-2.173 3.307-2.267 3.78-.756 4.062.85.19-2.172 1.323-6.707 2.551-7.273 1.984-10.485 3.873-8.974 5.29.19.189 2.456-.189 5.007-1.039 2.55-.756 5.1-1.134 5.668-.945.472.19.189.473-.662.473-1.228.094-1.7.85-1.7 2.834 0 3.211-1.511 3.778-9.446 3.873-2.834.094-6.896.378-8.88.755-2.929.567-3.4.85-2.362 1.795.756.567 2.267 1.228 3.401 1.417 1.511.19 1.89.661 1.322 1.606-.66.945-1.7.472-4.817-2.362l-3.968-3.59 4.912-1.133c2.74-.567 5.29-1.7 5.763-2.361.567-.945.85-.756.85.755 0 1.228.567 2.173 1.322 2.173 2.362 0 3.212-7.935 1.512-14.264-.472-1.795-2.173-4.535-3.684-5.952l-2.74-2.645 1.89-3.211c2.928-5.007 1.605-6.613-2.551-3.023-1.795 1.7-3.306 3.495-3.306 4.062 0 .661-1.134.944-3.023.661-2.078-.283-3.306 0-4.251 1.323-1.606 2.267-1.606.944.189-2.457 1.795-3.4 6.046-6.518 11.241-8.03l4.062-1.227.473 6.329c.283 3.495 1.228 7.84 2.172 9.824 1.323 2.929 2.078 3.496 4.629 3.496 5.857 0 12.847-6.707 12.847-12.375 0-4.912-6.612-10.297-12.753-10.297-3.495 0-2.928 2.55.756 3.306 5.574 1.134 6.33 1.512 7.84 4.346l1.418 2.834-2.173-1.323c-3.779-2.362-6.424-2.834-6.424-1.133 0 1.133-.283 1.228-1.133.472-.661-.567-2.078-1.606-3.023-2.267-1.795-1.228-1.795-1.417-.189-5.574 1.89-4.912 7.463-10.485 7.935-7.935.189.756 1.512 1.89 3.117 2.456 2.362.85 2.74.756 2.74-.755 0-.945-.661-2.362-1.606-3.023-1.322-1.134-.756-1.417 5.007-2.267l6.518-.945 1.133 2.456c.567 1.417 1.512 2.834 2.079 3.117zM199.223 30.14c2.55.756 6.235 3.023 8.597 5.196l4.25 3.873h-3.684c-2.078 0-4.345.284-5.1.567-.945.378-1.323-.189-1.323-2.078 0-2.173-2.267-5.101-3.968-5.101-.283 0-.378 2.361-.283 5.195.283 3.968-.095 5.763-1.512 7.84-1.133 1.418-2.267 3.78-2.55 5.196-.661 2.645-2.645 3.401-3.873 1.512-.378-.662.189-1.795 1.322-2.645 2.55-1.984 4.913-9.352 4.913-15.21 0-4.156-.284-4.722-1.984-4.722-1.04 0-1.606.472-1.323.944.284.567-.189 1.228-1.133 1.606-.945.284-2.834 1.417-4.251 2.362-2.456 1.7-2.456 1.7-1.984-.19.567-2.172.378-2.266-2.928-.944-1.984.756-2.456 1.512-2.456 4.251 0 2.078-.378 3.212-.945 2.834-1.323-.756-1.134-4.25.283-7.085 2.173-4.345 11.43-5.951 19.932-3.4zm17.099 14.737c1.794 1.134 4.156 3.306 5.29 4.912l2.078 2.834-3.968-1.984c-2.55-1.322-3.873-2.645-3.873-3.873 0-1.039-.189-1.889-.378-1.889s-1.039-.283-1.889-.567c-1.228-.472-1.511.095-1.511 2.74 0 2.74-.284 3.212-1.795 2.834-1.606-.378-4.535 2.456-7.085 6.99-1.228 2.267 2.928 1.323 6.046-1.228l2.928-2.55-.661 2.739c-.756 3.212-3.118 7.935-3.212 6.33 0-.568-3.212-1.796-7.085-2.646-6.046-1.417-6.896-1.795-5.668-2.928.661-.756 1.7-1.323 2.267-1.323s3.59-2.361 6.707-5.195l5.668-5.196h-3.306c-2.267 0-4.25.85-6.707 3.023-2.362 2.078-3.212 2.456-2.55 1.228 1.227-2.267 4.912-5.668 6.895-6.424 2.551-1.039 8.313 0 11.809 2.173zM83.032 58.385c-1.229 3.684-1.89 4.44-3.78 4.44-1.794 0-2.266.472-2.266 2.361 0 2.078.378 2.362 3.778 2.362 5.196 0 10.958 2.55 13.32 5.856 1.133 1.512 1.89 2.929 1.7 3.118-.756.661-13.225-2.173-14.642-3.401-1.322-1.134-1.322-1.322.189-2.456 1.606-1.134 1.606-1.228-.189-1.323-.945-.094-2.267-.094-2.928 0-1.606.19-2.55-3.967-1.795-7.746.378-1.606.661-3.495.756-4.156.094-.661 1.322-1.417 2.834-1.7 1.417-.378 2.928-1.04 3.211-1.512 1.323-2.173 1.228.095-.189 4.157zM28.808 78.128c4.25-.284 6.612-.095 6.612.566 0 1.606-6.896 6.613-14.548 10.486-6.801 3.59-6.99 3.59-7.557 1.606-1.039-3.779-.567-5.668 2.078-8.124l2.551-2.362 1.89 3.968c1.322 2.834 2.266 3.779 3.117 3.212.944-.567.85-1.7-.756-5.668-1.984-5.196-2.456-7.274-.945-4.723.756 1.228 2.079 1.417 7.558 1.039zm73.588 112.79c2.645.568 3.117 1.134 4.912 7.37 2.078 7.084 4.062 10.957 8.69 16.908 1.512 1.984 2.646 3.685 2.457 3.779-.19.094-1.7 1.134-3.401 2.267-1.606 1.228-3.4 2.267-3.873 2.362-.945.283-6.14-6.046-11.336-13.603-2.645-3.779-2.74-4.251-1.039-3.873 2.456.661 6.518-3.023 6.518-5.952 0-2.833-5.101-6.99-8.596-6.99-6.14 0-7.746 2.74-5.196 8.785l1.228 3.023-5.006-.85c-2.74-.567-4.63-1.228-4.062-1.606.566-.283.755-1.89.378-3.873-.473-2.362-.19-3.59.944-4.534 1.228-1.04 7.557-2.74 13.792-3.684.378-.095 1.984.189 3.59.472z"/><path d="M149.913 14.364c-.945.378-.945.756-.095 1.795s.756 1.322-.756 1.322c-.944 0-2.267.472-2.834 1.04-.566.566-2.456 1.322-4.25 1.7l-3.118.755 3.59 1.795c3.4 1.606 3.873 1.606 7.652.284l3.967-1.417 2.645 3.59 2.55 3.589h-3.683c-2.079 0-4.251.567-4.818 1.228-1.512 1.89 5.762 4.723 8.88 3.495 1.133-.472 2.456-.567 2.739-.283 1.417 1.417.378-5.196-1.134-7.085-1.7-2.173-1.7-2.267 1.134-5.196 2.456-2.55 3.495-2.928 6.33-2.74 1.888.19 3.683 0 3.967-.471.378-.473.094-.945-.567-1.04-.661-.094-2.74-.472-4.723-.755-3.118-.473-4.062-.19-6.33 1.983-1.51 1.512-2.55 3.118-2.172 3.685.283.566-1.323-.945-3.59-3.401-2.267-2.362-4.723-4.157-5.384-3.873zM112.41 27.306c-3.306 4.817-6.046 7.935-6.99 7.84-.85 0-2.74.756-4.251 1.7l-2.74 1.795 2.267.662c2.74.66 2.55 1.7-1.228 7.179-2.361 3.495-2.645 4.44-1.606 5.101.945.661.567.756-1.039.472-5.668-1.133-7.085-1.039-7.368.567-.283 1.323.283 1.7 2.645 1.7h2.928l-1.983 2.079c-3.023 3.306-2.456 4.345 1.983 3.59 5.196-.945 7.369-3.118 5.763-5.763-1.04-1.606-.945-2.362.378-4.44 1.606-2.361 1.606-2.456 2.361-.472 1.89 5.101 4.535 1.417 3.307-4.534-.756-4.062 8.407-17.949 13.13-19.65L123.274 24l-2.551-2.361c-1.323-1.228-2.55-2.268-2.645-2.268-.095 0-2.645 3.59-5.668 7.936zM129.32 44.215c-.284.85-.284 1.89 0 2.361.283.473-.284 1.606-1.323 2.55-1.04.946-1.89 2.08-1.89 2.551 0 1.04 3.59.945 4.251-.188.945-1.512 2.173-1.134 2.834.85.378 1.228-.094 2.55-1.322 3.778-1.134 1.134-1.984 3.118-1.984 4.535v2.55l1.511-2.078c.756-1.134 1.795-2.078 2.362-2.078 1.606 0 .85 2.456-1.511 4.723-2.079 1.984-2.362 3.023-2.362 8.785v6.613l2.267-2.078c3.684-3.401 5.29-7.841 5.29-14.17v-5.763h3.023c2.834 0 2.929 0 1.228-1.889-.944-1.039-2.361-2.078-3.212-2.361-.85-.284-2.361-1.984-3.306-3.78-.945-1.794-2.55-3.967-3.495-4.817-1.606-1.417-1.795-1.417-2.362-.094zM20.779 96.076c-2.078 1.511-4.912 3.873-6.33 5.29l-2.644 2.456v-3.306c0-1.795-.378-3.779-.85-4.44-1.417-2.267-2.929 3.968-1.89 7.557 1.04 3.968 4.251 9.258 5.574 9.258.567 0 .378.944-.378 2.078-2.362 3.779-2.267 10.202.189 10.202 2.645 0 5.857-2.645 5.195-4.345-.377-1.04-.85-1.134-1.511-.472-2.55 2.55-3.495-.19-1.134-3.307.756-.944 1.323-1.417 1.228-.85-.094.472 1.134 3.023 2.834 5.574 3.685 5.762 4.535 11.052 2.645 16.342-1.133 3.212-1.133 4.156-.189 5.007 1.04.755 1.606.189 2.834-2.834 2.268-5.763 1.89-11.242-1.133-17.193-1.89-3.779-2.362-5.668-1.7-6.707 1.039-1.606-2.362-10.108-4.818-12.092-2.55-2.172-2.267 1.795.567 7.085 2.267 4.157 2.55 5.101 1.133 4.157-.945-.567-1.7-1.7-1.606-2.55 0-.85-.567-1.512-1.322-1.512-.756 0-2.173-1.323-3.023-2.834-1.89-3.306-2.078-4.346-.756-4.062 1.323.378 12.186-7.935 12.186-9.352.189-2.173-1.322-1.89-5.101.85zM239.938 159.179c-.473.755-.756 2.172-.567 3.211.094.945-.094 1.512-.567 1.229-.472-.284-2.267.283-3.967 1.322-2.456 1.511-3.023 2.362-2.55 3.968.283 1.133.094 2.739-.379 3.495-.661 1.039-.944.755-.944-1.417 0-3.212-1.417-5.952-2.456-4.912-.378.377-.662 2.172-.567 4.062.283 7.084 5.951 11.052 7.18 5.006.282-1.606.566-3.967.566-5.195 0-1.323.756-2.362 1.89-2.74 1.038-.283 1.888-1.133 1.983-1.7.189-2.456 1.606 3.873 1.7 7.557.095 2.834-.472 4.629-1.983 6.33-2.551 2.833-13.509 6.612-24.372 8.312-7.18 1.134-9.447 2.74-4.818 3.4 3.117.473 16.248-2.36 23.9-5.195 8.88-3.306 10.485-5.762 9.918-14.925-.566-7.746-2.645-13.981-3.967-11.808zM12.938 171.743c.473 7.935 2.268 10.485 10.014 14.642 6.234 3.306 14.547 5.384 25.41 6.423 5.763.567 6.897.378 6.897-.756 0-1.039-2.645-1.7-10.675-2.833-10.674-1.512-20.971-4.913-24.655-8.124-2.267-2.079-4.346-6.99-4.346-10.392 0-1.511-.66-3.4-1.511-4.062-1.417-1.133-1.511-.755-1.134 5.102zM118.834 181.095c-6.424 7.084-7.558 14.075-3.59 22.104 3.023 6.046 7.652 10.58 9.069 9.163.85-.85.094-2.267-2.834-5.573-6.424-7.368-7.369-15.209-2.456-20.877 2.172-2.55 2.267-2.645 3.967-.85.945.945 1.134 1.512.472 1.134-1.322-.756-4.817 6.045-4.912 9.54 0 5.007 4.535 9.542 8.502 8.314.945-.284 2.362-1.984 3.212-3.78 1.795-3.683 1.039-8.123-2.078-13.224-1.7-2.74-1.7-2.929-.19-3.023 2.362-.189 5.669 6.235 5.669 11.147 0 5.1-2.74 10.863-8.124 16.815-3.968 4.345-4.346 6.518-.945 5.195 1.984-.756 8.69-9.635 10.486-13.886 2.928-7.18 1.417-15.492-4.251-22.388l-1.89-2.362-1.794 2.078c-1.7 2.078-1.795 2.078-3.401.284-2.173-2.362-2.55-2.362-4.912.189zM208.48 194.603c-3.305.756-6.8 1.606-7.934 1.984-1.606.472-1.89.283-1.417-.945.472-1.039.094-1.511-1.228-1.511-2.173 0-2.55 3.306-.85 9.824 1.511 6.046 4.534 9.352 8.69 9.447 1.89.094 3.496.189 3.496.283 0 3.4-8.88 9.73-13.887 9.73-1.511 0-2.172.567-2.172 1.795 0 1.606.377 1.7 3.967.85 5.385-1.134 10.958-4.44 13.32-7.557 2.55-3.401 3.212-12.092 1.322-17.382l-1.322-3.967 4.25-.567c5.952-.85 10.392-.661 10.959.283.85 1.228-4.724 8.313-8.408 10.675-3.778 2.456-4.818 6.329-1.133 4.44 4.345-2.362 7.462-5.196 10.202-9.258 3.023-4.629 3.495-8.124 1.228-8.974-2.456-.945-12.753-.472-19.082.85zM167.01 216.047c-8.407 11.146-9.918 13.508-9.068 14.358.472.378-1.606-.189-4.44-1.322-6.707-2.55-6.801-2.55-7.274-1.134-.66 1.7 11.147 6.99 12.659 5.668.661-.472 1.039-1.228.944-1.511-.283-.945 7.369-11.903 9.352-13.414 1.7-1.323 1.7-1.323.19.566-1.04 1.134-1.7 3.496-1.7 5.952 0 2.928-.473 4.062-1.607 4.534-.945.283-3.306 1.89-5.29 3.4-2.834 2.173-3.495 3.307-3.306 5.29.189 1.89.85 2.551 2.928 2.74 1.795.19 2.55-.094 2.55-1.133 0-.756-.566-1.512-1.133-1.795-1.511-.472 1.512-4.157 4.062-4.912 1.04-.378 1.795-1.323 1.795-2.173 0-1.134.378-.85 1.228.756 1.89 3.778 10.108 3.4 10.108-.473 0-2.078-4.346-4.534-6.613-3.778-1.889.567-1.983.378-1.795-5.385.095-4.817.567-6.518 2.645-9.257 3.968-5.196 4.157-5.668 2.173-5.668-1.228 0-4.156 3.023-8.407 8.69zM64.705 210.662c-.756.945-1.039 3.495-.756 7.463l.378 6.14-2.928-.567c-5.668-.944-8.69-2.267-11.43-4.817-1.512-1.512-3.496-2.929-4.346-3.307-4.629-1.7 1.606 6.14 7.085 8.974 2.078 1.04 6.33 2.173 9.352 2.362 2.929.283 5.196.85 5.007 1.228-.85 1.417 5.29 8.407 9.54 10.958 3.496 2.078 5.952 2.645 11.714 3.023 8.597.472 11.903-.661 10.392-3.59-1.228-2.172-3.779-2.55-3.779-.472 0 1.04-1.134 1.417-4.912 1.417-6.613 0-13.603-3.306-18.137-8.596l-3.496-4.157 3.118-.756c3.495-.85 7.368-4.628 7.368-7.179 0-3.779-6.802-9.54-11.147-9.54-1.039 0-2.362.66-3.023 1.416z"/><path d="M182.88 210.568c-7.273 4.062-5.573 15.303 2.551 15.87 1.606.094 3.023.378 3.023.567 0 .188-.85 1.605-1.889 3.022-2.173 3.023-9.919 7.085-15.303 8.124-2.267.378-3.59 1.134-3.59 1.984 0 3.212 14.075-1.228 19.27-6.14 3.685-3.495 5.48-8.03 5.385-14.359 0-7.462-1.322-10.39-4.534-10.39-1.511.094-3.684.66-4.912 1.322zM111.465 228.138c-.377.567.284 2.078 1.512 3.4l2.173 2.268-2.268 1.7c-6.14 4.44-13.603 7.747-17.854 7.747-4.062.094-4.25.188-2.55 1.416 1.039.756 3.212 1.417 4.818 1.417 3.4 0 13.225-4.628 16.814-7.935l2.362-2.172 4.062 4.062c3.117 3.212 4.345 3.873 5.29 3.023 1.04-.85-.094-2.457-5.573-8.219-7.747-8.03-7.841-8.124-8.786-6.707zM150.102 238.813c-6.613 8.502-11.62 10.769-17.382 7.746-1.89-.945-2.928-1.134-3.4-.378-1.134 1.89 2.172 3.967 7.084 4.44 5.007.472 9.069-1.323 12.847-5.48 1.228-1.322 1.984-1.605 2.456-.85.378.662 2.834 1.323 5.48 1.607 7.934.755 11.713-3.401 8.501-9.353-.755-1.51-1.228-1.7-2.267-.85s-1.133 1.512-.189 2.929c.85 1.417.756 2.078-.472 3.306-1.228 1.228-2.456 1.417-6.33.85l-4.817-.661 2.834-3.4c2.078-2.457 2.456-3.59 1.606-4.157-1.7-1.04-1.795-1.04-5.951 4.25z"/></g></svg><svg fill="none" viewBox="0 0 17 17" id="search" xmlns="http://www.w3.org/2000/svg"><path fill-rule="evenodd" clip-rule="evenodd" d="m11.958 10.957 4.834 4.834a.708.708 0 1 1-1.001 1.001l-4.835-4.834a6.697 6.697 0 0 1-4.227 1.5A6.737 6.737 0 0 1 0 6.73C0 3.02 3.019 0 6.73 0c3.71 0 6.728 3.019 6.728 6.73 0 1.6-.564 3.07-1.5 4.226ZM1.417 6.729a5.318 5.318 0 0 0 5.312 5.313 5.318 5.318 0 0 0 5.312-5.313A5.318 5.318 0 0 0 6.73 1.417a5.318 5.318 0 0 0-5.312 5.312Z" fill="#5A5A5A"/></svg><svg fill="none" viewBox="0 0 14 14" id="whatsapp" xmlns="http://www.w3.org/2000/svg"><path d="M11.875 2.063C13.188 3.375 14 5.092 14 6.968c0 3.812-3.188 6.937-7.031 6.937-1.157 0-2.282-.312-3.313-.844L0 14l.969-3.594A6.945 6.945 0 0 1 .03 6.937C.031 3.126 3.156 0 6.97 0c1.875 0 3.625.75 4.906 2.063ZM6.969 12.719c3.187 0 5.843-2.594 5.843-5.75 0-1.563-.656-3-1.75-4.094A5.697 5.697 0 0 0 7 1.187c-3.188 0-5.781 2.594-5.781 5.75 0 1.094.312 2.157.875 3.094l.156.219-.594 2.125 2.188-.594.187.125a5.78 5.78 0 0 0 2.938.813Zm3.187-4.313c.156.094.281.125.313.219.062.063.062.406-.094.813-.156.406-.844.78-1.156.812-.563.094-1 .063-2.094-.438-1.75-.75-2.875-2.5-2.969-2.593-.093-.125-.687-.938-.687-1.813 0-.843.437-1.25.594-1.437a.586.586 0 0 1 .468-.219h.313c.125 0 .25-.031.406.313.125.343.5 1.187.531 1.28.032.095.063.188 0 .313-.312.657-.687.625-.5.938.688 1.156 1.344 1.562 2.375 2.062.157.094.25.063.375-.031.094-.125.438-.531.531-.688.126-.187.25-.156.407-.093.156.062 1 .468 1.187.562Z" fill="#707070"/></svg><svg fill="none" viewBox="0 0 18 12" id="youtube" xmlns="http://www.w3.org/2000/svg"><path d="M17.156 1.906c.375 1.313.375 4.125.375 4.125s0 2.782-.375 4.125a2.084 2.084 0 0 1-1.5 1.5C14.312 12 9 12 9 12s-5.344 0-6.688-.344a2.084 2.084 0 0 1-1.5-1.5C.438 8.812.438 6.031.438 6.031s0-2.812.376-4.125a2.126 2.126 0 0 1 1.5-1.531C3.655 0 9 0 9 0s5.313 0 6.656.375a2.126 2.126 0 0 1 1.5 1.531ZM7.25 8.563l4.438-2.532L7.25 3.5v5.063Z" fill="#707070"/></svg></svg>